<?xml version="1.0" encoding="UTF-8"?>
<svg width="26px" height="26px" viewBox="0 0 26 26" version="1.1" xmlns="http://www.w3.org/2000/svg" xmlns:xlink="http://www.w3.org/1999/xlink">
    <!-- Generator: Sketch 44.1 (41455) - http://www.bohemiancoding.com/sketch -->
    <title>thema-bestuur-organisatie</title>
    <desc>Created with Sketch.</desc>
    <defs></defs>
    <g id="Iconen" stroke="none" stroke-width="1" fill="none" fill-rule="evenodd">
        <g id="thema-bestuur-organisatie" fill="#000000">
            <g transform="translate(0.000000, 5.000000)">
                <path d="M25.7291667,12.9458333 C25.7291667,10.3458333 23.7791667,9.04583333 21.0708333,9.04583333 L17.3875,9.04583333 C17.225,9.425 16.9541667,9.75 16.6833333,10.075 C18.9041667,10.5083333 20.5291667,11.8083333 21.125,13.7041667 L25.675,13.7041667 L25.675,12.9458333 L25.7291667,12.9458333 Z" id="Shape"></path>
                <path d="M8.99166667,10.075 C8.72083333,9.75 8.50416667,9.425 8.34166667,9.04583333 L4.92916667,9.04583333 C2.22083333,9.04583333 0.270833333,10.3458333 0.270833333,12.9458333 L0.270833333,13.7041667 L4.44166667,13.7041667 C5.09166667,11.8083333 6.71666667,10.5083333 8.99166667,10.075 Z" id="Shape"></path>
                <path d="M19.3916667,13.7041667 C18.6875,12.35 17.1166667,11.5916667 15.1125,11.5916667 L10.4541667,11.5916667 C8.45,11.5916667 6.87916667,12.35 6.175,13.7041667 C5.90416667,14.1916667 5.79583333,14.7875 5.79583333,15.3833333 L5.79583333,16.25 L19.7708333,16.25 L19.7708333,15.4375 C19.7708333,14.7875 19.6625,14.1916667 19.3916667,13.7041667 Z" id="Shape"></path>
                <path d="M22.2625,3.7375 C22.2625,1.67916667 20.5833333,0.0541666667 18.5791667,0.0541666667 C17.0083333,0.0541666667 15.7083333,1.02916667 15.1666667,2.38333333 C16.8458333,3.19583333 17.9833333,4.92916667 17.9833333,6.93333333 C17.9833333,7.09583333 17.9833333,7.25833333 17.9291667,7.42083333 C18.1458333,7.475 18.3625,7.475 18.5791667,7.475 C20.5833333,7.42083333 22.2625,5.74166667 22.2625,3.7375 Z" id="Shape"></path>
                <path d="M10.6708333,2.32916667 C10.1291667,0.975 8.775,0 7.25833333,0 C5.2,0 3.575,1.67916667 3.575,3.68333333 C3.575,5.74166667 5.25416667,7.36666667 7.25833333,7.36666667 C7.475,7.36666667 7.69166667,7.36666667 7.85416667,7.3125 C7.85416667,7.15 7.8,6.9875 7.8,6.825 C7.8,4.875 8.99166667,3.14166667 10.6708333,2.32916667 Z" id="Shape"></path>
                <circle id="Oval" cx="12.8375" cy="6.87916667" r="3.4125"></circle>
            </g>
        </g>
    </g>
</svg>