<?xml version="1.0" encoding="UTF-8"?>
<svg width="26px" height="26px" viewBox="0 0 26 26" version="1.1" xmlns="http://www.w3.org/2000/svg" xmlns:xlink="http://www.w3.org/1999/xlink">
    <!-- Generator: Sketch 42 (36781) - http://www.bohemiancoding.com/sketch -->
    <title>thema-bevolking</title>
    <desc>Created with Sketch.</desc>
    <defs></defs>
    <g id="Iconen" stroke="none" stroke-width="1" fill="none" fill-rule="evenodd">
        <g id="thema-bevolking" fill="#000000">
            <g transform="translate(0.000000, 3.000000)">
                <path d="M1.7069,1.8702069 C1.7069,0.955724138 2.4479,0.214275862 3.36238276,0.214275862 C4.27731379,0.214275862 5.01876207,0.955724138 5.01876207,1.8702069 C5.01876207,2.78468966 4.27731379,3.52613793 3.36238276,3.52613793 C2.4479,3.52613793 1.7069,2.78468966 1.7069,1.8702069" id="Fill-351"></path>
                <path d="M10.6873897,1.8702069 C10.6873897,0.955724138 9.9454931,0.214275862 9.03145862,0.214275862 C8.11697586,0.214275862 7.37552759,0.955724138 7.37552759,1.8702069 C7.37552759,2.78468966 8.11697586,3.52613793 9.03145862,3.52613793 C9.9454931,3.52613793 10.6873897,2.78468966 10.6873897,1.8702069" id="Fill-354"></path>
                <path d="M10.5636655,5.31422069 L11.2535621,8.41808276 L11.1370103,10.3286345 L12.070769,8.1163931 C12.0931828,8.06170345 12.1070793,8.00163448 12.1129069,7.94335862 C12.1191828,7.89091034 12.119631,7.83532414 12.1124586,7.78287586 L11.6247345,4.52749655 C11.5682517,4.18635862 11.2737345,3.92142759 10.9231828,3.92142759 L10.9231828,3.92097931 L10.9169069,3.92097931 L10.9110793,3.92097931 L7.14735517,3.92097931 L7.13659655,3.92097931 L6.15397586,3.92277241 L5.25742414,3.92097931 L5.25383793,3.92097931 L1.4824931,3.92097931 L1.47711379,3.92097931 L1.47083793,3.92097931 L1.47083793,3.92142759 C1.11983793,3.92142759 0.825768966,4.18635862 0.768837931,4.52749655 L0.281562069,7.78287586 C0.26632069,7.8936 0.281113793,8.01373793 0.323251724,8.1163931 L1.25701034,10.3290828 L1.14045862,8.41808276 L1.83035517,5.31422069 C1.89176897,5.32766897 1.94466552,5.36532414 1.97828621,5.41822069 C2.0119069,5.47111724 2.02356207,5.53477241 2.00966552,5.59618621 L1.3784931,8.43691034 L1.53583793,11.018531 L1.79718276,14.6710828 C1.79763103,14.6755655 1.79763103,14.6796 1.79807931,14.6840828 L2.08901034,18.7499448 L1.67794138,18.8992207 C1.23683793,19.0592552 0.941424138,19.4734621 0.932458621,19.9410138 L5.79311379,19.9410138 C5.78325172,19.4734621 5.48828621,19.0592552 5.04763103,18.8992207 L4.63566552,18.7499448 L4.92659655,14.6840828 C4.92704483,14.6827379 4.9274931,14.6710828 4.9274931,14.6710828 L5.2507,10.1596345 L5.25114828,10.1547034 C5.25114828,10.1417034 5.25204483,10.1287034 5.25383793,10.1157034 L5.25383793,5.33932414 C5.26683793,5.33932414 5.27938966,5.33977241 5.29283793,5.33887586 L6.19745862,5.2918069 L7.10118276,5.33887586 C7.11418276,5.33977241 7.12673448,5.33932414 7.13973448,5.33932414 L7.13973448,10.1157034 C7.14152759,10.1287034 7.14242414,10.1417034 7.14287241,10.1547034 L7.14332069,10.1596345 L7.46607931,14.6710828 C7.46607931,14.6710828 7.46742414,14.6827379 7.46742414,14.6840828 L7.7579069,18.7499448 L7.34638966,18.8992207 C6.90573448,19.0592552 6.61032069,19.4734621 6.60135517,19.9410138 L11.4620103,19.9410138 C11.4525966,19.4734621 11.1571828,19.0592552 10.7165276,18.8992207 L10.3045621,18.7499448 L10.5959414,14.6840828 C10.5959414,14.6796 10.5963897,14.6755655 10.5968379,14.6710828 L10.8572862,11.0274966 L11.0155276,8.43691034 L10.3839069,5.59618621 C10.3704586,5.53522069 10.3816655,5.47111724 10.4152862,5.41822069 C10.4493552,5.36532414 10.5027,5.32811724 10.5636655,5.31422069" id="Fill-357"></path>
                <path d="M20.5977379,1.89392069 C20.5977379,0.980782759 21.3382897,0.240231034 22.2514276,0.240231034 C23.1650138,0.240231034 23.9051172,0.980782759 23.9051172,1.89392069 C23.9051172,2.80705862 23.1650138,3.54761034 22.2514276,3.54761034 C21.3382897,3.54761034 20.5977379,2.80705862 20.5977379,1.89392069" id="Fill-360"></path>
                <path d="M25.3291103,7.9599 C25.326869,7.97872759 25.3313517,7.93927931 25.3291103,7.9599" id="Fill-363"></path>
                <path d="M25.3286172,7.79874483 L24.8417897,4.5474 C24.834169,4.49808966 24.8220655,4.44474483 24.8023414,4.39857241 L24.8023414,4.39812414 C24.7463069,4.25064138 24.6445483,4.17084828 24.5378586,4.0646069 C24.4213069,3.98526207 24.2814448,3.94267586 24.1406862,3.94267586 L24.1406862,3.94222759 L20.3738241,3.94222759 L20.3679966,3.94222759 L20.362169,3.94222759 L20.362169,3.94267586 C20.0116172,3.94267586 19.7179966,4.20536552 19.6610655,4.54784828 L19.1742379,7.79874483 C19.1581,7.90677931 19.1733414,8.03184828 19.2163759,8.13181379 L20.1483414,10.3413655 L20.0326862,8.43305517 L20.7212379,5.33367586 C20.7826517,5.34712414 20.8355483,5.38433103 20.869169,5.43722759 C20.9027897,5.49012414 20.9139966,5.55422759 20.9005483,5.6151931 L20.2702724,8.45233103 L20.4267207,11.0276759 L20.6885138,14.6784345 C20.6885138,14.6784345 20.6889621,14.6896414 20.6894103,14.6909862 L20.9798931,18.7510207 L20.5688241,18.9002966 C20.128169,19.060331 19.8336517,19.4745379 19.8242379,19.9407448 L24.6786172,19.9407448 C24.6692034,19.4745379 24.3742379,19.060331 23.934031,18.9002966 L23.5229621,18.7510207 L23.8134448,14.6909862 C23.8138931,14.6896414 23.8143414,14.6784345 23.8143414,14.6784345 L24.0779276,10.9958483 L25.2869276,8.13181379 C25.3093414,8.07802069 25.3223414,8.01750345 25.3290655,7.96012414 C25.3348931,7.90767586 25.3366862,7.85074483 25.3286172,7.79874483" id="Fill-366"></path>
                <path d="M15.5693379,0.434468966 C15.5496138,0.434468966 15.5303379,0.435365517 15.5110621,0.436262069 C15.2703379,0.174468966 14.9256138,0.0104 14.5418897,0.0104 C13.8147862,0.0104 13.2253034,0.599882759 13.2253034,1.32743448 C13.2253034,1.35253793 13.2262,1.3771931 13.2275448,1.40184828 C13.2257517,1.41977931 13.2253034,1.43681379 13.2253034,1.4534 C13.2253034,1.93215862 13.6430966,3.16133103 12.6802,3.38950345 C13.4727517,3.90143448 14.1814759,3.5186069 14.2868207,3.08646897 C14.5867172,3.46391724 15.0497862,3.70643448 15.5693379,3.70643448 C16.4726138,3.70643448 17.2055448,2.9744 17.2055448,2.07067586 C17.2055448,1.16695172 16.4726138,0.434468966 15.5693379,0.434468966" id="Fill-369"></path>
                <path d="M18.6148793,7.92323103 L18.1325345,4.7055069 C18.0818793,4.36571379 17.7819828,4.10616207 17.4386034,4.10616207 L17.4386034,4.10616207 L17.4327759,4.10616207 C17.4309828,4.10616207 17.4291897,4.10571379 17.4273966,4.10616207 L13.6990862,4.10616207 L13.6990862,4.10661034 C13.4121897,4.10661034 13.1463621,4.28861034 13.0441552,4.55712759 L13.0441552,4.55757586 C13.0248793,4.60374828 13.0127759,4.65619655 13.0051552,4.70505862 L12.5237069,7.92323103 C12.507569,8.03081724 12.5228103,8.1523 12.5649483,8.25271379 L13.3158103,10.0328172 L12.8038793,12.4257138 L13.8568793,12.4257138 L14.0218448,14.7320931 C14.0218448,14.7320931 14.0227414,14.7433 14.0227414,14.7446448 L14.3109828,18.7634379 L13.9035,18.911369 C13.4677759,19.0691621 13.1759483,19.4788862 13.1669828,19.9406103 L17.9716034,19.9406103 C17.9621897,19.4788862 17.6703621,19.0691621 17.2346379,18.911369 L16.8276034,18.7634379 L17.1153966,14.7446448 C17.1153966,14.7406103 17.1158448,14.7361276 17.1162931,14.7320931 L17.2812586,12.4257138 L18.3347069,12.4257138 L16.9060517,5.7620931 C16.8926034,5.70157586 16.9038103,5.63792069 16.9369828,5.58592069 C16.9706034,5.53347241 17.0230517,5.49626552 17.083569,5.48326552 L17.9801207,9.6585069 L18.5731897,8.25271379 C18.5960517,8.20026552 18.6086034,8.1410931 18.6148793,8.08461034 C18.6148793,8.08819655 18.614431,8.09133448 18.6153276,8.08371379 C18.6166724,8.07340345 18.6162241,8.07743793 18.6153276,8.08236897 C18.6211552,8.03081724 18.6225,7.97478276 18.6148793,7.92323103" id="Fill-371"></path>
            </g>
        </g>
    </g>
</svg>