<?xml version="1.0" encoding="UTF-8"?>
<svg viewBox="0 0 20 20" version="1.1" xmlns="http://www.w3.org/2000/svg" xmlns:xlink="http://www.w3.org/1999/xlink">
    <path d="M7.98536727,9.49644617 L7.98536727,10.260525 L7.34478426,10.260525 L4.00429349,14.2450176 L0,9.46875 L2.91353395,9.46875 C3.18800835,5.02098893 6.88621093,1.5 11.448596,1.5 C16.1911995,1.5 20,5.30464727 20,10 C20,14.6953531 16.1911997,18.5 11.448596,18.5 L10.9141333,18.5 L10.9141333,16.2991071 L11.448596,16.2991071 C14.9696615,16.2991071 17.7857972,13.4837193 17.7857972,10 C17.7857972,6.51628068 14.9696615,3.70089286 11.448596,3.70089286 C8.10839259,3.70089286 5.40256036,6.23448017 5.13339935,9.46875 L8.00858699,9.46875 L7.98536727,9.49644617 Z M10.7617175,10.1493388 C10.761526,10.1436041 10.7614297,10.1378491 10.7614297,10.132075 L10.7614297,5.817925 C10.7614297,5.48695 11.0781083,5.21875 11.4688068,5.21875 C11.8595054,5.21875 12.176184,5.48695 12.176184,5.817925 L12.176184,9.46875 L15.4439269,9.46875 C15.7592474,9.46875 16.0148086,9.783525 16.0148086,10.171875 C16.0148086,10.560225 15.759021,10.875 15.4439269,10.875 L11.3323113,10.875 C11.0169909,10.875 10.7614297,10.56045 10.7614297,10.171875 C10.7614297,10.1643346 10.7615261,10.156822 10.7617175,10.1493388 Z M15.5918529,13.7102715 L15.0286019,14.2701345 L13.9682061,13.2161153 L14.5314572,12.65625 L15.5918529,13.7102715 Z M10.7614297,15.209375 L10.7614297,13.71875 L11.5579929,13.71875 L11.5579929,15.209375 L10.7614297,15.209375 Z M8.11782273,14.270067 L7.55465317,13.710123 L8.61519829,12.65625 L9.17836785,13.216194 L8.11782273,14.270067 Z M15.0285996,6.28125 L15.5918506,6.84111525 L14.5314549,7.89513675 L13.9682061,7.3352715 L15.0285996,6.28125 Z M7.55465317,6.84111525 L8.11790196,6.28125 L9.17829768,7.3352715 L8.61504889,7.89513675 L7.55465317,6.84111525 Z" id="klok" fill="#000000"></path>
</svg>