<?xml version="1.0" encoding="UTF-8"?>
<svg width="26px" height="26px" viewBox="0 0 26 26" version="1.1" xmlns="http://www.w3.org/2000/svg" xmlns:xlink="http://www.w3.org/1999/xlink">
    <!-- Generator: Sketch 41.2 (35397) - http://www.bohemiancoding.com/sketch -->
    <title>icoon-klok-zwart</title>
    <desc>Created with Sketch.</desc>
    <defs></defs>
    <g id="Styleguide" stroke="none" stroke-width="1" fill="none" fill-rule="evenodd">
        <g id="icoon-klok-zwart" fill="#000000">
            <path d="M13.6428571,21 C17.8214286,21 21.1428571,17.6250005 21.1428571,13.5 C21.1428571,9.375 17.8214286,6 13.6428571,6 C9.46428571,6 6.14285714,9.375 6.14285714,13.5 L4,13.5 L6.67857143,16.7142857 L9.35714286,13.5 L7.21428571,13.5 C7.21428571,9.96428571 10.0535714,7.07142857 13.6428571,7.07142857 C17.2321429,7.07142857 20.0714286,9.96428571 20.0714286,13.5 C20.0714286,17.0357143 17.2321429,19.9285714 13.6428571,19.9285714 L13.6428571,21 Z" id="Page-1" stroke="#000000"></path>
            <path d="M14.3235294,13.6243059 C14.3235294,13.9358118 14.0272706,14.1882353 13.6617647,14.1882353 L13.6617647,14.1882353 C13.2962588,14.1882353 13,13.9358118 13,13.6243059 L13,9.56392941 C13,9.25242353 13.2962588,9 13.6617647,9 L13.6617647,9 C14.0272706,9 14.3235294,9.25242353 14.3235294,9.56392941 L14.3235294,13.6243059 Z" id="Fill-4"></path>
            <path d="M13.5340706,14.3235294 C13.2390824,14.3235294 13,14.0274824 13,13.6617647 L13,13.6617647 C13,13.2962588 13.2392941,13 13.5340706,13 L17.3805647,13 C17.6755529,13 17.9146353,13.2962588 17.9146353,13.6617647 L17.9146353,13.6617647 C17.9146353,14.0272706 17.6753412,14.3235294 17.3805647,14.3235294 L13.5340706,14.3235294 Z" id="Fill-5"></path>
            <polygon id="Fill-6" points="10 10.526932 10.5269299 10 11.5189501 10.9920202 10.9920202 11.5189522"></polygon>
            <polygon id="Fill-7" points="16.9920181 10 17.5189501 10.526932 16.5269299 11.5189522 16 10.9920202"></polygon>
            <polygon id="Fill-8" points="9 13.7452 10.4029412 13.7452 10.4029412 13 9 13"></polygon>
            <polygon id="Fill-9" points="10.5268558 17.5188866 10 16.9918805 10.99216 16 11.5190158 16.5270061"></polygon>
            <polygon id="Fill-10" points="17.5189522 16.9920202 16.9920202 17.5189501 16 16.526932 16.526932 16"></polygon>
            <polygon id="Fill-11" points="13 18.4029412 13.7452 18.4029412 13.7452 17 13 17"></polygon>
        </g>
    </g>
</svg>