<svg xmlns="http://www.w3.org/2000/svg" width="26" height="26" viewBox="0 0 26 26">
    <g var:fill.fill="#fff" fill-rule="evenodd">
        <path d="M5 6.371V9.57c1.178 1.526 8.027 1.453 8.027 1.453s6.465.055 7.552-1.395V6.342c-1.089-1.453-7.71-1.337-7.71-1.337S6.183 4.846 5 6.37M5 16.762v3.199c1.178 1.527 8.027 1.453 8.027 1.453s6.465.056 7.552-1.395v-3.286c-1.232 1.445-7.584 1.415-7.584 1.415S6.36 18.238 5 16.762M5 11.43v3.197c1.178 1.527 8.027 1.454 8.027 1.454s6.465.055 7.552-1.396V11.4c-1.232 1.445-7.584 1.415-7.584 1.415S6.36 12.905 5 11.429"/>
    </g>
</svg>
