<?xml version="1.0" encoding="UTF-8"?>
<svg width="26px" height="26px" viewBox="0 0 26 26" version="1.1" xmlns="http://www.w3.org/2000/svg" xmlns:xlink="http://www.w3.org/1999/xlink">
    <!-- Generator: Sketch 42 (36781) - http://www.bohemiancoding.com/sketch -->
    <title>thema-gezondheid-zorg-welzijn</title>
    <desc>Created with Sketch.</desc>
    <defs></defs>
    <g id="Iconen" stroke="none" stroke-width="1" fill="none" fill-rule="evenodd">
        <g id="thema-gezondheid-zorg-welzijn" fill="#000000">
            <g transform="translate(0.000000, 1.000000)" id="Shape">
                <path d="M12.9409091,23.5181818 L8.15454545,19.3227273 C7.68181818,18.9090909 7.15,18.4363636 6.61818182,18.0227273 C3.54545455,15.4227273 0.0590909091,12.4681818 0.0590909091,7.85909091 C0.0590909091,3.60454545 3.54545455,0.118181818 7.8,0.118181818 C9.75,0.118181818 11.5818182,0.827272727 13,2.12727273 C14.4181818,0.827272727 16.25,0.118181818 18.2,0.118181818 C22.4545455,0.118181818 25.9409091,3.60454545 25.9409091,7.85909091 C25.9409091,12.4681818 22.4545455,15.4227273 19.3818182,17.9636364 C18.85,18.3772727 18.3181818,18.85 17.8454545,19.2636364 L12.9409091,23.5181818 Z M7.8,2.48181818 C4.84545455,2.48181818 2.42272727,4.90454545 2.42272727,7.85909091 C2.42272727,11.4045455 5.2,13.7090909 8.09545455,16.1318182 C8.62727273,16.6045455 9.15909091,17.0181818 9.69090909,17.4909091 L12.9409091,20.3272727 L16.25,17.4909091 C16.7818182,17.0181818 17.3136364,16.6045455 17.8454545,16.1318182 C20.8,13.65 23.5181818,11.3454545 23.5181818,7.85909091 C23.5181818,4.90454545 21.0954545,2.48181818 18.1409091,2.48181818 C16.4863636,2.48181818 14.8909091,3.25 13.8863636,4.60909091 L13,5.85 L12.0545455,4.60909091 C11.05,3.25 9.45454545,2.48181818 7.8,2.48181818 Z"></path>
            </g>
        </g>
    </g>
</svg>