<svg viewBox="0 0 1024 1024" version="1.1" xmlns="http://www.w3.org/2000/svg" xmlns:xlink="http://www.w3.org/1999/xlink"><path d="M823.753846,616.093413 L902.153846,694.495669 L694.495669,902.153846 L655.706939,863.3817 L709.172037,809.916601 L684.628506,785.389653 L631.17999,838.854751 L587.664972,795.339733 L674.512591,708.525282 L649.969059,683.965167 L563.138024,770.812785 L521.231602,728.906363 L573.817777,676.320188 L549.307412,651.776657 L496.688071,704.379415 L453.571056,661.245817 L539.771919,575.011787 L515.244971,550.501422 L429.027524,636.718869 L386.756266,594.44761 L440.237948,540.965928 L415.694416,516.43898 L362.229318,569.904079 L320.488731,528.163492 L407.137347,441.548042 L382.593816,416.987927 L295.961783,503.636544 L253.159853,460.818031 L306.608369,407.369516 L282.08142,382.842568 L228.599738,436.291083 L187.041569,394.732914 L273.723353,308.034547 L249.163238,283.507599 L162.514621,370.189382 L118.153846,325.828607 L325.828607,118.153846 L404.226351,196.553846 L663.033831,196.553846 C663.033831,196.553846 655.173988,209.972022 651.075501,225.953846 C646.977015,241.93567 647.353846,255.353846 647.353846,255.353846 L463.024659,255.353846 L764.953846,557.291721 L764.953846,372.953846 C764.953846,372.953846 781.212116,372.590683 794.353846,369.311247 C807.495576,366.031811 823.753846,357.273861 823.753846,357.273861 L823.753846,616.093413 Z M771.099623,196.880689 C803.393455,200.274908 826.821221,229.20579 823.427003,261.499623 C820.032784,293.793455 791.101902,317.221221 758.80807,313.827003 C726.514237,310.432784 703.086471,281.501902 706.480689,249.20807 C709.874908,216.914237 738.80579,193.486471 771.099623,196.880689 Z M255.353846,647.353846 C255.353846,647.353846 239.867884,647.353846 225.953846,650.981593 C212.039808,654.609339 196.553846,663.033831 196.553846,663.033831 L196.553846,452.529836 L255.353846,511.329836 L255.353846,647.353846 Z M567.777857,823.753846 L357.273861,823.753846 C357.273861,823.753846 365.642127,808.351624 369.297987,794.353846 C372.953846,780.356068 372.953846,764.953846 372.953846,764.953846 L508.977857,764.953846 L567.777857,823.753846 Z M249.20807,823.427003 C216.914237,820.032784 193.486471,791.101902 196.880689,758.80807 C200.274908,726.514237 229.20579,703.086471 261.499623,706.480689 C293.793455,709.874908 317.221221,738.80579 313.827003,771.099623 C310.432784,803.393455 281.501902,826.821221 249.20807,823.427003 Z" var:fill.fill="#fff"/></svg>
