<svg viewBox="0 0 1024 1024" version="1.1" xmlns="http://www.w3.org/2000/svg" xmlns:xlink="http://www.w3.org/1999/xlink"><path d="M164.134095,272.282037 L164.134095,708.761367 L319.543487,623.185646 L541.892321,737.651682 L703.865905,648.85217 L703.865905,195.238522 L543.154146,284.183203 L321.003222,182.586167 L164.134095,272.282037 Z M320.236319,673.557803 L120,783.817337 L120,246.310401 L318.776583,132.652355 L541.277021,234.409235 L748,120 L748,675.3591 L542.538846,788 L320.236319,673.557803 Z M371.368595,610.926852 L371.368595,566.369787 L731.049484,566.369787 L731.049484,610.926852 L371.368595,610.926852 Z M371.368595,566.369787 L731.049484,566.369787 L731.049484,610.926852 L371.368595,610.926852 L371.368595,566.369787 Z M590.198755,590.292362 L634.33285,590.292362 L634.33285,719.644418 L590.198755,719.644418 L590.198755,590.292362 Z M634.33285,590.292362 L634.33285,719.644418 L590.198755,719.644418 L590.198755,590.292362 L634.33285,590.292362 Z M284.724496,432.589696 L327.613239,443.099749 L265.97928,699.455554 L223.090536,688.945501 L284.724496,432.589696 Z M327.613239,443.099749 L265.97928,699.455554 L223.090536,688.945501 L284.724496,432.589696 L327.613239,443.099749 Z M315.333166,415.56619 L315.333166,460.123255 L151.087136,460.123255 L151.087136,415.56619 L315.333166,415.56619 Z M315.333166,460.123255 L151.087136,460.123255 L151.087136,415.56619 L315.333166,415.56619 L315.333166,460.123255 Z M347.413656,431.525312 L391.54775,431.525312 L391.54775,674.801189 L347.413656,674.801189 L347.413656,431.525312 Z M391.54775,431.525312 L391.54775,674.801189 L347.413656,674.801189 L347.413656,431.525312 L391.54775,431.525312 Z M503.011791,360.703335 L503.011791,316.14627 L722.081167,316.14627 L722.081167,360.703335 L503.011791,360.703335 Z M503.011791,316.14627 L722.081167,316.14627 L722.081167,360.703335 L503.011791,360.703335 L503.011791,316.14627 Z M449.146256,229.343307 L492.153944,219.340934 L533.628764,401.106789 L490.621076,411.109161 L449.146256,229.343307 Z M492.153944,219.340934 L533.628764,401.106789 L490.621076,411.109161 L449.146256,229.343307 L492.153944,219.340934 Z M303.344598,461.499428 L181.181841,242.513327 L219.636489,220.648008 L325.580861,410.561413 L458.7225,379.420794 L723.668927,413.935066 L718.021028,458.125776 L460.948717,424.637257 L303.344598,461.499428 Z M904.354202,760.198773 C904.711904,760.198773 905,760.492404 905,760.852592 L905,904.348139 C905,904.708326 904.711904,905 904.354202,905 L683.645798,905 C683.288096,905 683,904.708326 683,904.348139 L683,760.852592 C683,760.492404 683.288096,760.198773 683.645798,760.198773 L904.354202,760.198773 Z M808.501463,866.596971 C808.870767,866.596971 809.139528,866.240698 809.040918,865.880511 L800.709344,835.194106 C800.666806,835.035546 800.746081,834.87307 800.894962,834.806513 C807.631375,831.860415 812.345318,825.07558 812.345318,817.174946 C812.345318,807.420522 805.160326,799.365243 795.856187,798.135908 C784.036528,796.57379 773.551003,806.641421 774.469429,818.674422 C775.010817,825.780294 779.374791,831.799731 785.480874,834.636207 C785.846311,834.804556 786.043531,835.207809 785.937186,835.601275 L777.773829,865.663224 C777.646217,866.133034 777.996185,866.596971 778.477634,866.596971 L808.501463,866.596971 Z M874.850579,666.591283 C874.929908,666.765071 874.97537,666.946538 874.989588,667.127955 C880.036838,678.403231 882.849559,690.898754 882.849559,704.027287 L882.849559,745.717026 C882.849559,746.335609 882.354611,746.838697 881.741726,746.838697 L839.972745,746.838697 C839.615068,746.838697 839.325059,746.545066 839.325059,746.182921 L839.325059,704.027287 C839.325059,691.851385 834.574717,680.337132 825.953727,671.606501 C825.769514,671.420029 825.608437,671.224714 825.469734,671.021309 C816.920621,662.663193 805.789624,658.070109 793.938215,658.070109 C781.911668,658.070109 770.538654,662.877828 761.915117,671.606501 C753.293513,680.337132 748.542834,691.851385 748.542834,704.027287 L748.542834,746.182921 C748.542834,746.545066 748.252805,746.838697 747.895102,746.838697 L706.123154,746.838697 C705.510225,746.838697 705.015242,746.335609 705.015242,745.717026 L705.015242,704.027287 C705.015242,654.5113 745.029613,614 794.034891,614 C829.76843,614 860.749356,635.628865 874.850579,666.591283 Z" var:fill.fill="#fff"/></svg>
