<svg viewBox="0 0 1024 1024" version="1.1" xmlns="http://www.w3.org/2000/svg" xmlns:xlink="http://www.w3.org/1999/xlink"><path d="M602.355212,378.27652 L602.355212,484.068846 C602.355212,487.023156 599.88028,489.423533 596.834211,489.423533 L541.091143,489.423533 L541.091143,441.175959 C541.091143,438.221649 538.616212,435.821272 535.570143,435.821272 L489.612572,435.821272 C486.566503,435.821272 484.091572,438.221649 484.091572,441.175959 L484.091572,489.423533 L427.548911,489.423533 C424.502841,489.423533 422.02791,487.023156 422.02791,484.068846 L422.02791,377.693122 L406.879427,391.781743 L384.490818,364.122016 L512.083045,253.77854 L640.132182,364.122016 L616.810714,391.781743 L602.355212,378.27652 Z M512.345768,120 C658.442866,120 768.615385,229.863401 768.615385,368.47593 C768.615385,510.910598 512.345768,904 512.345768,904 C512.345768,904 256,513.717193 256,368.47593 C256,229.623363 368.266691,120 512.345768,120 Z M512.614149,178.498535 C402.702073,178.498535 316.609525,261.940413 316.609525,368.44613 C316.609525,413.238432 370.916476,564.021378 512.417456,794.240076 C654.174137,562.34262 708.540096,412.284593 708.540096,368.44613 C708.540096,260.166272 624.296463,178.498535 512.614149,178.498535 Z" var:fill.fill="#fff"/></svg>
