<svg viewBox="0 0 1024 1024" version="1.1" xmlns="http://www.w3.org/2000/svg" xmlns:xlink="http://www.w3.org/1999/xlink"><path d="M719.948498,468.833333 L826,357.441176 L582.081545,120 L582.081545,120 L582.081545,120 L468.454936,229.926471 L357.858369,124.397059 L357.858369,124.397059 L357.858369,124.397059 L120,355.97549 L226.051502,455.642157 L224.536481,457.107843 C197.266094,483.490196 197.266094,527.460784 224.536481,553.843137 C238.171674,567.034314 256.351931,574.362745 274.532189,574.362745 L279.077253,574.362745 C277.562232,593.416667 283.622318,612.470588 298.772532,627.127451 C312.407725,640.318627 330.587983,647.647059 348.76824,647.647059 C348.76824,665.235294 356.343348,682.823529 369.978541,696.014706 C383.613734,709.205882 401.793991,716.534314 419.974249,716.534314 C438.154506,716.534314 456.334764,709.205882 469.969957,696.014706 L474.515021,691.617647 L479.060086,696.014706 L480.575107,697.480392 C494.2103,710.671569 512.390558,718 530.570815,718 C548.751073,718 566.93133,710.671569 580.566524,697.480392 C592.686695,685.754902 600.261803,669.632353 600.261803,653.509804 C610.866953,653.509804 622.987124,650.578431 633.592275,644.715686 C657.832618,632.990196 671.467811,609.539216 671.467811,586.088235 C688.133047,584.622549 704.798283,578.759804 716.918455,567.034314 C747.218884,539.186275 747.218884,495.215686 719.948498,468.833333 L719.948498,468.833333 Z M691.548441,419 L532.832157,276.998433 L460.545532,341.672414 L451.116842,348.702194 C443.2596,351.514107 432.259461,350.10815 425.973668,344.484326 C416.544978,336.048589 416.544978,323.394984 424.40222,316.365204 L583.118504,174.363636 L771.692308,341.672414 L691.548441,419 Z M265.194533,518.292261 C252.627463,505.712246 252.627463,487.740796 265.194533,475.160781 L266.989828,473.363636 L310.076923,514.697971 L306.486332,518.292261 C295.714558,530.872276 277.761602,530.872276 265.194533,518.292261 Z M346.354462,558.503381 L349.830154,554.909091 L391.538462,596.243426 L388.062769,599.837716 C375.897846,612.417731 358.519385,612.417731 346.354462,599.837716 C334.189538,590.851991 334.189538,571.083396 346.354462,558.503381 Z M440.754808,681.968288 C428.875,693.768147 411.903846,693.768147 400.024038,681.968288 C394.932692,676.911205 391.538462,670.168428 391.538462,661.739958 C391.538462,654.997181 394.932692,646.56871 400.024038,641.511628 L405.115385,636.454545 L445.846154,675.225511 L440.754808,681.968288 Z M683.028706,523.108407 C673.834953,531.937389 656.979738,531.937389 646.253693,523.108407 L578.832836,458.362543 L546.654699,489.263978 L614.075557,554.009843 C614.075557,554.009843 624.801602,564.310321 623.26931,573.139303 C621.737018,581.968284 618.672433,589.325769 609.47868,593.74026 C604.881803,595.211757 591.091173,602.569241 578.832836,590.797266 L578.832836,590.797266 L508.347394,526.051401 L476.169258,558.424334 L545.122407,623.170198 C554.31616,633.470677 552.783868,648.185646 543.590115,657.014627 C534.396362,665.843609 517.541147,665.843609 506.815102,657.014627 L174.307692,343.585783 L350.521296,174.363636 L428.668199,249.409979 L388.828602,286.197403 C362.779634,311.21285 362.779634,353.886261 388.828602,378.901709 C402.619232,392.145181 419.474446,398.031169 437.861952,398.031169 C454.717167,398.031169 470.040089,392.145181 482.298427,381.844703 L525.202608,340.642789 C525.202608,340.642789 681.496414,487.792481 684.560998,492.206972 C693.754751,501.035954 690.690167,515.750923 683.028706,523.108407 Z M904.354202,760.198773 L683.645798,760.198773 C683.288096,760.198773 683,760.492404 683,760.852592 L683,904.348139 C683,904.708326 683.288096,905 683.645798,905 L904.354202,905 C904.711904,905 905,904.708326 905,904.348139 L905,760.852592 C905,760.492404 904.711904,760.198773 904.354202,760.198773 M808.501463,866.596971 L778.477634,866.596971 C777.996185,866.596971 777.646217,866.133034 777.773829,865.663224 L785.937186,835.601275 C786.043531,835.207809 785.846311,834.804556 785.480874,834.636207 C779.374791,831.799731 775.010817,825.780294 774.469429,818.674422 C773.551003,806.641421 784.036528,796.57379 795.856187,798.135908 C805.160326,799.365243 812.345318,807.420522 812.345318,817.174946 C812.345318,825.07558 807.631375,831.860415 800.894962,834.806513 C800.746081,834.87307 800.666806,835.035546 800.709344,835.194106 L809.040918,865.880511 C809.139528,866.240698 808.870767,866.596971 808.501463,866.596971 Z M874.850579,666.591283 C874.929908,666.765071 874.97537,666.946538 874.989588,667.127955 C880.036838,678.403231 882.849559,690.898754 882.849559,704.027287 L882.849559,745.717026 C882.849559,746.335609 882.354611,746.838697 881.741726,746.838697 L839.972745,746.838697 C839.615068,746.838697 839.325059,746.545066 839.325059,746.182921 L839.325059,704.027287 C839.325059,691.851385 834.574717,680.337132 825.953727,671.606501 C825.769514,671.420029 825.608437,671.224714 825.469734,671.021309 C816.920621,662.663193 805.789624,658.070109 793.938215,658.070109 C781.911668,658.070109 770.538654,662.877828 761.915117,671.606501 C753.293513,680.337132 748.542834,691.851385 748.542834,704.027287 L748.542834,746.182921 C748.542834,746.545066 748.252805,746.838697 747.895102,746.838697 L706.123154,746.838697 C705.510225,746.838697 705.015242,746.335609 705.015242,745.717026 L705.015242,704.027287 C705.015242,654.5113 745.029613,614 794.034891,614 C829.76843,614 860.749356,635.628865 874.850579,666.591283 Z" var:fill.fill="#fff"/></svg>
