<svg viewBox="0 0 1024 1024" version="1.1" xmlns="http://www.w3.org/2000/svg" xmlns:xlink="http://www.w3.org/1999/xlink"><path d="M884.47531,143.647347 C886.407186,142.555614 888.486158,142 890.702421,142 C894.301397,142 897.419856,143.306181 900.047991,145.918542 C902.685932,148.54065 904,151.640392 904,155.208019 L904,763.06934 C904,768.576743 901.646446,772.427051 896.939339,774.630012 L697.52469,880.342905 C695.583008,881.444386 693.504035,882 691.297579,882 C687.688796,882 684.570338,880.693819 681.952009,878.071711 C679.314068,875.45935 678,872.359608 678,868.782233 L678,260.920913 C678,255.423257 680.353554,251.572949 685.060661,249.36024 L884.47531,143.647347 Z M393,155.208019 C393,151.640392 394.297242,148.54065 396.920987,145.918542 C399.534978,143.306181 402.636654,142 406.216262,142 C408.420598,142 410.35183,142.4094 412.000205,143.237947 L623.567682,248.95084 C628.522561,251.709416 631,255.696191 631,260.920913 L631,868.782233 C631,872.359608 629.693004,875.45935 627.079013,878.071711 C624.455268,880.693819 621.353592,882 617.783738,882 C615.569649,882 613.64817,881.5906 611.999795,880.762053 L400.432318,775.04916 C395.477439,772.300332 393,768.303809 393,763.06934 L393,155.208019 Z M326.47531,143.647347 L127.060661,249.36024 C122.353554,251.572949 120,255.423257 120,260.920913 L120,868.782233 C120,872.359608 121.314068,875.45935 123.942203,878.071711 C126.580144,880.693819 129.688796,882 133.297579,882 C135.513842,882 137.583008,881.444386 139.52469,880.342905 L338.939339,774.630012 C343.646446,772.427051 346,768.576743 346,763.06934 L346,155.208019 C346,151.640392 344.685932,148.54065 342.057797,145.918542 C339.419856,143.306181 336.301397,142 332.702421,142 C330.486158,142 328.407186,142.555614 326.47531,143.647347" var:fill.fill="#fff"/></svg>
