<?xml version="1.0" encoding="UTF-8"?>
<svg viewBox="0 0 1024 1024" version="1.1" xmlns="http://www.w3.org/2000/svg" xmlns:xlink="http://www.w3.org/1999/xlink">
	<path d="M771.000418,256.144238 L632.488081,329.571843 C629.21855,331.108778 627.583784,333.783181 627.583784,337.601823 L627.583784,759.81901 C627.583784,762.303836 628.496528,764.4569 630.328828,766.271432 C632.147505,768.092734 634.313569,769 636.82021,769 C638.352803,769 639.796846,768.614073 641.145528,767.848991 L779.657865,694.421387 C782.927396,692.891222 784.562162,690.216819 784.562162,686.391406 L784.562162,264.174219 C784.562162,261.696164 783.649418,259.5431 781.817118,257.721798 C779.99163,255.907266 777.825565,255 775.325736,255 C773.786331,255 772.342288,255.385927 771.000418,256.144238 M429.624324,264.174219 L429.624324,686.391406 C429.624324,690.027241 431.34514,692.803204 434.786772,694.712524 L581.740398,768.140129 C582.885351,768.715633 584.219999,769 585.757894,769 C588.237495,769 590.391903,768.092734 592.214342,766.271432 C594.030006,764.4569 594.937838,762.303836 594.937838,759.81901 L594.937838,337.601823 C594.937838,333.972759 593.217022,331.203567 589.77539,329.287476 L442.821764,255.859871 C441.676812,255.284367 440.335388,255 438.804268,255 C436.317892,255 434.163485,255.907266 432.347821,257.721798 C430.525382,259.5431 429.624324,261.696164 429.624324,264.174219 Z M244.904297,329.571843 C241.634766,331.108778 240,333.783181 240,337.601823 L240,759.81901 C240,762.303836 240.912744,764.4569 242.738233,766.271432 C244.570532,768.092734 246.729786,769 249.236426,769 C250.775831,769 252.213062,768.614073 253.561744,767.848991 L392.074081,694.421387 C395.343613,692.891222 396.978378,690.216819 396.978378,686.391406 L396.978378,264.174219 C396.978378,261.696164 396.065634,259.5431 394.240146,257.721798 C392.407846,255.907266 390.241781,255 387.741952,255 C386.202548,255 384.758505,255.385927 383.416634,256.144238 L244.904297,329.571843 Z" id="kaart" var:fill.fill="#000000"></path>
</svg>
