<?xml version="1.0" encoding="UTF-8"?>
<svg width="26px" height="26px" viewBox="0 0 26 26" version="1.1" xmlns="http://www.w3.org/2000/svg" xmlns:xlink="http://www.w3.org/1999/xlink">
    <!-- Generator: Sketch 42 (36781) - http://www.bohemiancoding.com/sketch -->
    <title>thema-parkeren-beheer</title>
    <desc>Created with Sketch.</desc>
    <defs></defs>
    <g id="Iconen" stroke="none" stroke-width="1" fill="none" fill-rule="evenodd">
        <g id="thema-parkeren-beheer">
            <g transform="translate(0.000000, 5.000000)" id="Shape">
                <path d="M24.1041679,7.85416708 L25.729168,7.85416708 L25.729168,7.85416708 C25.1875013,6.77083369 24.1583346,5.6875003 21.9375011,5.6875003 L19.4458343,5.6875003 C18.5791676,4.49583357 15.4916675,0.270833347 15.4916675,0.270833347 L4.98333359,0.270833347 L0.270833347,4.65833358 L0.270833347,12.6750007 L1.9500001,12.6750007 C2.22083345,10.8333339 3.79166686,9.42500049 5.6875003,9.42500049 C7.58333373,9.42500049 9.15416714,10.8333339 9.42500049,12.6750007 L15.4916675,12.6750007 C15.8166675,10.8875006 17.3333342,9.42500049 19.2291677,9.42500049 C21.0708344,9.42500049 22.6958345,10.8875006 22.9666679,12.6750007 L25.729168,12.6750007 L25.729168,9.96666719 L24.1041679,9.96666719 L24.1041679,7.85416708 L24.1041679,7.85416708 Z M7.85416708,5.6875003 L2.43750013,5.6875003 L5.8500003,2.43750013 L7.85416708,2.43750013 L7.85416708,5.6875003 Z M10.0208339,5.6875003 L10.0208339,2.43750013 L14.3000007,2.43750013 C14.7333341,3.08750016 16.3041675,5.1458336 16.6833342,5.6875003 L10.0208339,5.6875003 Z" fill="#010202"></path>
                <path d="M8.3416671,12.7291673 C8.07083375,11.4833339 6.98750036,10.5625005 5.6875003,10.5625005 C4.38750023,10.5625005 3.30416684,11.4833339 3.03333349,12.7291673 C2.97916682,12.8916673 2.97916682,13.108334 2.97916682,13.270834 C2.97916682,14.7875008 4.17083355,15.9791675 5.6875003,15.9791675 C7.20416704,15.9791675 8.39583377,14.7875008 8.39583377,13.270834 C8.39583377,13.0541673 8.39583377,12.8916673 8.3416671,12.7291673 Z" fill="#000000"></path>
                <path d="M21.9375011,12.7291673 C21.6666678,11.4833339 20.5833344,10.5625005 19.2833343,10.5625005 C17.9833343,10.5625005 16.9000009,11.4833339 16.6291675,12.7291673 C16.5750009,12.8916673 16.5750009,13.108334 16.5750009,13.270834 C16.5750009,14.7875008 17.7666676,15.9791675 19.2833343,15.9791675 C20.8000011,15.9791675 21.9916678,14.7875008 21.9916678,13.270834 C21.9916678,13.0541673 21.9375011,12.8916673 21.9375011,12.7291673 Z" fill="#000000"></path>
            </g>
        </g>
    </g>
</svg>