<?xml version="1.0" encoding="UTF-8"?>
<svg width="26px" height="26px" viewBox="0 0 26 26" version="1.1" xmlns="http://www.w3.org/2000/svg" xmlns:xlink="http://www.w3.org/1999/xlink">
    <!-- Generator: Sketch 43.2 (39069) - http://www.bohemiancoding.com/sketch -->
    <title>icoon-polygoon-meten-wit-border</title>
    <desc>Created with Sketch.</desc>
    <defs>
        <polygon id="path-1" points="-5.32907052e-15 26 26 26 26 0 -5.32907052e-15 0"></polygon>
        <path d="M11.65678,0.00833784028 C10.8329577,-0.0782493686 10.094925,0.519397727 10.0083378,1.34321999 C9.92175063,2.16704225 10.5193977,2.90507495 11.34322,2.99166216 C12.1670423,3.07824937 12.905075,2.48060227 12.9916622,1.65678001 C13.0782494,0.832957748 12.4806023,0.0949250492 11.65678,0.00833784028 Z" id="path-2"></path>
        <path d="M11.65678,0.00833784028 C10.8329577,-0.0782493686 10.094925,0.519397727 10.0083378,1.34321999 C9.92175063,2.16704225 10.5193977,2.90507495 11.34322,2.99166216 C12.1670423,3.07824937 12.905075,2.48060227 12.9916622,1.65678001 C13.0782494,0.832957748 12.4806023,0.0949250492 11.65678,0.00833784028 Z" id="path-3"></path>
    </defs>
    <g id="Symbols" stroke="none" stroke-width="1" fill="none" fill-rule="evenodd">
        <g id="icoon-polygoon-meten-wit-border">
            <g id="Fill-4">
                <use fill="#FFFFFF" fill-rule="evenodd" xlink:href="#path-1"></use>
                <path stroke="#CCCCCC" stroke-width="1" d="M0.5,25.5 L0.5,0.5 L25.5,0.5 L25.5,25.5 L0.5,25.5 Z"></path>
            </g>
            <g id="icoon" transform="translate(1.000000, 3.000000)">
                <g id="lijnen" transform="translate(10.500000, 12.000000) rotate(-180.000000) translate(-10.500000, -12.000000) translate(4.000000, 6.000000)">
                    <rect id="Rectangle-2" fill="#666666" x="11.5" y="4" width="1.5" height="8"></rect>
                    <rect id="Rectangle" fill="#666666" x="0" y="0" width="9" height="1.5"></rect>
                    <g id="Oval-2">
                        <use fill="#666666" fill-rule="evenodd" xlink:href="#path-2"></use>
                        <path stroke="#FFFFFF" stroke-width="1.5" d="M11.7351764,-0.737553581 C10.4994096,-0.867437897 9.39233073,0.0290569222 9.26244642,1.26482364 C9.1325621,2.50059036 10.0290569,3.60766927 11.2648236,3.73755358 C12.5005904,3.8674379 13.6076693,2.97094308 13.7375536,1.73517636 C13.8674379,0.499409638 12.9709431,-0.607669265 11.7351764,-0.737553581 L11.7351764,-0.737553581 Z"></path>
                    </g>
                </g>
                <g id="lijnen" transform="translate(7.000000, 2.000000)">
                    <rect id="Rectangle-2" fill="#666666" x="11.5" y="4" width="1.5" height="8"></rect>
                    <rect id="Rectangle" fill="#666666" x="0" y="0" width="9" height="1.5"></rect>
                    <g id="Oval-2">
                        <use fill="#666666" fill-rule="evenodd" xlink:href="#path-3"></use>
                        <path stroke="#FFFFFF" stroke-width="1.5" d="M11.7351764,-0.737553581 C10.4994096,-0.867437897 9.39233073,0.0290569222 9.26244642,1.26482364 C9.1325621,2.50059036 10.0290569,3.60766927 11.2648236,3.73755358 C12.5005904,3.8674379 13.6076693,2.97094308 13.7375536,1.73517636 C13.8674379,0.499409638 12.9709431,-0.607669265 11.7351764,-0.737553581 L11.7351764,-0.737553581 Z"></path>
                    </g>
                </g>
                <g>
                    <rect id="bg" fill="#FFFFFF" transform="translate(10.500000, 11.500000) rotate(-45.000000) translate(-10.500000, -11.500000) " x="8" y="-7.10542736e-15" width="5" height="23"></rect>
                    <polygon id="Page-1" fill="#666666" transform="translate(12.000000, 10.000000) rotate(-90.000000) translate(-12.000000, -10.000000) " points="16.7021745 0 15.570522 1.13165242 17.781792 3.34207632 17.1561046 3.96860987 14.9444115 1.75733988 13.8842542 2.81749725 15.2477367 4.18182587 14.6220492 4.80751333 13.2585667 3.4440308 12.1662577 4.53591674 14.3766816 6.74591759 13.7501481 7.37202809 11.5405703 5.1616042 10.4757594 6.22641509 11.8396649 7.59032067 11.2139775 8.21643117 9.84964887 6.85210255 8.77130045 7.93045097 10.9707251 10.1298756 10.3454607 10.7555631 8.145613 8.55656147 7.0452661 9.65648532 8.3871732 10.9988155 7.7610627 11.6240799 6.41957864 10.2825958 5.35053727 11.3516372 7.56603774 13.5667146 6.93950419 14.1928251 4.72484982 11.9773246 3.61477282 13.0874016 4.9786784 14.4508842 4.35299095 15.0769947 2.98908537 13.7130891 2 14.7025975 7.29740249 20 22 5.29782554"></polygon>
                </g>
            </g>
        </g>
    </g>
</svg>