<?xml version="1.0" encoding="UTF-8"?>
<svg viewBox="0 0 16 16" version="1.1" xmlns="http://www.w3.org/2000/svg" xmlns:xlink="http://www.w3.org/1999/xlink">
    <g id="icoon/uitleg-klein" stroke="none" stroke-width="1" fill="none" fill-rule="evenodd">
        <circle id="Oval" fill="#EC0000" cx="8" cy="8" r="8"></circle>
        <path d="M7.93801091,10.4857544 C8.6343238,10.4857544 9.19480885,11.0454297 9.19480885,11.7424869 C9.19480885,12.4387636 8.6343238,13 7.93801091,13 C7.24091739,13 6.68121296,12.4387636 6.68121296,11.7424869 C6.68121296,11.0454297 7.24091739,10.4857544 7.93801091,10.4857544 L7.93801091,10.4857544 Z M6.91383768,9.11974085 C6.91383768,8.57333541 7.05044615,8.2173913 7.39157702,7.8911092 C8.40169909,6.92084927 9.14016546,6.46889392 9.14016546,5.84052767 C9.14016546,5.24026227 8.71628889,4.88509874 8.15580384,4.88509874 C7.30961193,4.88509874 6.85919429,5.43150418 6.8045509,6.10124112 L4.69999981,5.96385918 C4.89125167,4.03738974 6.21596354,3 8.11521161,3 C9.78261559,3 11.1892925,3.92888924 11.1892925,5.69065647 C11.1892925,6.72960737 10.7935183,7.35797362 9.49534749,8.38209351 C9.07147091,8.70915619 8.96218414,9.02451019 8.96218414,9.3242526 L8.96218414,9.72078682 L6.91383768,9.72078682 L6.91383768,9.11974085 L6.91383768,9.11974085 Z" id="vraagteken" fill="#FFFFFF"></path>
    </g>
</svg>
