<?xml version="1.0" encoding="UTF-8"?>
<svg width="26px" height="26px" viewBox="0 0 26 26" version="1.1" xmlns="http://www.w3.org/2000/svg" xmlns:xlink="http://www.w3.org/1999/xlink">
    <!-- Generator: Sketch 40.3 (33839) - http://www.bohemiancoding.com/sketch -->
    <title>icoon-zoek</title>
    <desc>Created with Sketch.</desc>
    <defs></defs>
    <g id="Styleguide" stroke="none" stroke-width="1" fill="none" fill-rule="evenodd">
        <g id="icoon-zoek">
            <path d="M20.5607045,20.1880116 L20.0953636,20.6763837 C19.7892273,20.9969651 19.28775,21.0032442 18.9744545,20.6903372 L13.7582045,15.4832442 L15.3308182,13.833593 L20.5467273,19.0410349 C20.8607045,19.3539419 20.8665,19.8674302 20.5607045,20.1880116" id="Fill-1" fill="#FFFFFF"></path>
            <path d="M14.2405909,14.3553837 C12.5759318,16.1006163 9.84422727,16.1365465 8.13865909,14.4328256 C6.43309091,12.7294535 6.39797727,9.93422093 8.06263636,8.18898837 C9.72763636,6.44096512 12.4593409,6.40817442 14.1649091,8.11154651 C15.8732045,9.8149186 15.90525,12.6101512 14.2405909,14.3553837 L14.2405909,14.3553837 Z M14.7509318,7.49689535 C12.7129773,5.46526744 9.45047727,5.50712791 7.46502273,7.58933721 C5.47684091,9.67468605 5.51775,13.0130581 7.55536364,15.0443372 C9.59059091,17.0791047 12.85275,17.0372442 14.8382045,14.9518953 C16.8267273,12.869686 16.7858182,9.53131395 14.7509318,7.49689535 L14.7509318,7.49689535 Z" id="Stroke-3" stroke="#FFFFFF" stroke-width="2" fill="#E13636"></path>
        </g>
    </g>
</svg>