<?xml version="1.0" encoding="UTF-8"?>
<svg width="26px" height="26px" viewBox="0 0 26 26" version="1.1" xmlns="http://www.w3.org/2000/svg" xmlns:xlink="http://www.w3.org/1999/xlink">
    <!-- Generator: Sketch 42 (36781) - http://www.bohemiancoding.com/sketch -->
    <title>thema-stedelijke-ontwikkeling-rood</title>
    <desc>Created with Sketch.</desc>
    <defs></defs>
    <g id="Iconen" stroke="none" stroke-width="1" fill="none" fill-rule="evenodd">
        <g id="thema-stedelijke-ontwikkeling-rood" fill="#FF0000">
            <g id="thema-stedelijke-ontwikkeling" transform="translate(0.000000, 5.000000)">
                <path d="M6.86027986,6.81353791 L8.00697879,6.81353791 L8.00697879,5.55371793 L6.86027986,5.55371793 L6.86027986,6.81353791 Z M4.31132247,6.81077211 L5.43644819,6.81077211 L5.43644819,5.54403765 L4.31132247,5.54403765 L4.31132247,6.81077211 Z M14.0159467,3.99380911 L15.9143889,3.99380911 L15.9143889,2.93174353 L14.0159467,2.93174353 L14.0159467,3.99380911 Z M11.1052232,3.98966042 L12.9804328,3.98966042 L12.9804328,2.92206324 L11.1052232,2.92206324 L11.1052232,3.98966042 Z M14.0259036,2.23891169 L15.9143889,2.23891169 L15.9143889,1.178229 L14.0259036,1.178229 L14.0259036,2.23891169 Z M11.1068827,2.23476299 L12.9671569,2.23476299 L12.9671569,1.15471974 L11.1068827,1.15471974 L11.1068827,2.23476299 Z M0,12.8263779 L3.50481642,12.8263779 L3.50481642,4.59813549 L8.79191163,4.59813549 L8.79191163,12.8001029 L10.4381133,12.8001029 L10.4381133,0 L16.5466498,0 L16.5466498,12.8001029 L18.9960386,12.8001029 L18.9960386,5.97826758 L22.6734407,5.97826758 L22.6734407,12.8263779 L25.997374,12.8263779 L25.997374,15.1372003 C25.8828701,15.1330516 25.7667067,15.1261371 25.6522027,15.1261371 C17.2170787,15.1247542 8.78029529,15.1247542 0.346830791,15.1261371 C0.230667368,15.1261371 0.116163423,15.1330516 0,15.1372003 L0,12.8263779 Z" id="Fill-113"></path>
            </g>
        </g>
    </g>
</svg>