<?xml version="1.0" encoding="UTF-8"?>
<svg width="26px" height="26px" viewBox="0 0 26 26" version="1.1" xmlns="http://www.w3.org/2000/svg" xmlns:xlink="http://www.w3.org/1999/xlink">
    <!-- Generator: Sketch 42 (36781) - http://www.bohemiancoding.com/sketch -->
    <title>thema-toerisme</title>
    <desc>Created with Sketch.</desc>
    <defs></defs>
    <g id="Iconen" stroke="none" stroke-width="1" fill="none" fill-rule="evenodd">
        <g id="thema-toerisme">
            <g transform="translate(0.000000, 3.000000)">
                <path d="M17.0906322,0.716921451 C16.1910057,0.336601823 14.4909391,0.610785741 13.2419492,0.610785741 C11.7611033,0.610785741 10.3655451,0.446528094 9.28902574,0.610785741 C7.75195323,0.842009966 8.01160666,2.5073298 7.68498665,3.76326903 L3.78323578,3.76326903 C2.63722282,3.76326903 0.697719071,3.52446369 0.256118706,4.18970715 C-0.136204365,4.78103468 0.0950198601,6.81277542 0.0950198601,7.8791866 L0.0950198601,15.6277252 C0.0950198601,16.6322239 -0.138731406,18.7530428 0.310450081,19.3146776 C0.716040116,19.8245081 2.23668687,19.6893114 3.35490238,19.6893114 L22.7044531,19.6893114 C23.7936077,19.6893114 25.2422338,19.7973424 25.642138,19.369009 C26.0641538,18.9160369 25.910636,16.9152524 25.910636,15.7338609 L25.910636,7.8791866 C25.910636,6.86837031 26.1235392,4.66858137 25.6945741,4.13790282 C25.1954835,3.5162508 23.2692467,3.76326903 22.1150209,3.76326903 C20.7921151,3.76326903 19.5260677,3.80749225 18.21327,3.70956942 C17.9536166,2.57998222 18.22401,1.19516391 17.0906322,0.716921451" id="Fill-105" fill="#FFFFFF"></path>
                <path d="M8.27195503,7.13067714 C7.35463925,8.10169253 6.58262831,9.27929351 6.45564452,11.1922633 C6.19220052,15.1432915 9.06228701,17.9944252 12.3354365,18.2439704 C15.0760122,18.4562419 17.2878045,17.0309909 18.4287634,15.3593535 C20.5413695,12.2542522 19.3050148,8.16613207 16.9851914,6.43574094 C15.7583131,5.52032044 14.1397436,5.00733118 12.2804734,5.20444035 C10.5254436,5.39396841 9.1640004,6.18809095 8.27195503,7.13067714 L8.27195503,7.13067714 Z M19.1230679,4.93657404 C18.9979793,5.38386024 19.1041151,6.06110716 19.0687365,6.59683979 L24.6800304,6.59683979 L24.6800304,4.93657404 L19.1230679,4.93657404 Z M18.213965,3.70969577 C19.5261309,3.8076186 20.7921783,3.76339538 22.1150841,3.76339538 C23.2699417,3.76339538 25.1949149,3.51637716 25.6940055,4.13802917 C26.1229706,4.66807596 25.9100675,6.86849666 25.9100675,7.87931295 L25.9100675,15.7339873 C25.9100675,16.9153788 26.0642169,18.9155315 25.6422011,19.3691353 C25.242297,19.796837 23.7936709,19.688806 22.7038846,19.688806 L3.3543338,19.688806 C2.23675004,19.688806 0.715471532,19.8246344 0.310513257,19.3148039 C-0.13929999,18.7531691 0.094451276,16.6317185 0.094451276,15.6272198 L0.094451276,7.87931295 C0.094451276,6.81227001 -0.136772949,4.78052927 0.256181882,4.18983351 C0.697150487,3.52395828 2.63791776,3.76339538 3.78329896,3.76339538 L7.68504982,3.76339538 C8.01166984,2.50808791 7.7520164,0.841504558 9.28908892,0.611543853 C10.3656083,0.446654446 11.7605347,0.611543853 13.2420124,0.611543853 C14.4910022,0.611543853 16.1910689,0.336728175 17.0906954,0.716416043 C18.2240731,1.19529026 17.9536798,2.58074033 18.213965,3.70969577 L18.213965,3.70969577 Z" id="Fill-107" fill="#000000"></path>
                <path d="M24.6799672,4.93670039 L24.6799672,6.59633438 L19.0686733,6.59633438 C19.1040519,6.06123351 18.9985479,5.3839866 19.1230047,4.93670039 L24.6799672,4.93670039 Z" id="Fill-109" fill="#FFFFFF"></path>
                <path d="M9.39490875,9.85495338 C8.02398916,12.6460699 10.1309094,15.7505394 13.0300568,15.7341136 C14.8823777,15.7259007 16.8086144,14.3992043 17.0385752,12.1532969 C17.3190767,9.40134957 15.1300277,7.38161228 12.4943242,7.71960398 C10.9837856,7.91039555 9.83524559,8.96038097 9.39490875,9.85495338 M12.2807892,5.20519847 C14.1394277,5.00745753 15.758629,5.52107855 16.9855073,6.43586729 C19.3053307,8.16689018 20.5416853,12.2550103 18.4284475,15.3594798 C17.2881204,17.0311173 15.0756963,18.4557365 12.3351206,18.2440968 C9.06260289,17.9945515 6.1925164,15.1434178 6.45532864,11.1923897 C6.58294419,9.2787881 7.35495513,8.10181888 8.27227091,7.13080349 C9.16368452,6.18884906 10.5257595,5.39409476 12.2807892,5.20519847" id="Fill-111" fill="#FFFFFF"></path>
                <path d="M12.4946401,7.71935127 C15.1297118,7.38199134 17.3193926,9.40172863 17.038891,12.1530442 C16.8089303,14.3989516 14.8826935,15.725648 13.0291092,15.7338609 C10.1305935,15.7502867 8.02304152,12.6458171 9.39522463,9.85470068 C9.83492971,8.96076002 10.9834697,7.91014285 12.4946401,7.71935127" id="Fill-113" fill="#000000"></path>
            </g>
        </g>
    </g>
</svg>