<?xml version="1.0" encoding="UTF-8"?>
<svg width="39px" height="39px" viewBox="0 0 39 39" version="1.1" xmlns="http://www.w3.org/2000/svg" xmlns:xlink="http://www.w3.org/1999/xlink">
    <!-- Generator: Sketch 44.1 (41455) - http://www.bohemiancoding.com/sketch -->
    <title>icoon-marker</title>
    <desc>Created with Sketch.</desc>
    <defs></defs>
    <g id="Symbols" stroke="none" stroke-width="1" fill="none" fill-rule="evenodd">
        <g id="icoon-marker">
            <path d="M20.2703367,1 C13.3739461,1 8,6.26983494 8,12.9455551 C8,19.9273858 20.2703367,38.6899986 20.2703367,38.6899986 C20.2703367,38.6899986 32.5369529,19.7928132 32.5369529,12.9455551 C32.5369529,6.28143186 27.2639574,1 20.2703367,1 M20.2703367,4.38243577 C25.2838866,4.38243577 29.0644501,8.06373391 29.0644501,12.9455551 C29.0644501,13.7488836 28.6532065,17.1189977 23.3608642,26.7553156 C22.2863726,28.7118131 21.2051841,30.5709448 20.2614074,32.1498175 C19.3206072,30.5839913 18.2446274,28.7415302 17.1750965,26.8004953 C12.0283513,17.4596573 11.4725028,13.9996671 11.4725028,12.9455551 C11.4725028,10.6150569 12.3723771,8.45343883 14.0064377,6.85910357 C15.6434747,5.26211068 17.8678608,4.38243577 20.2703367,4.38243577" id="Fill-11" fill="#666666"></path>
            <path d="M19.265376,35.3922447 C15.3727003,28.9772918 8.7362514,17.044532 8.7362514,12.2633917 C8.7362514,6.36038496 13.3633614,1.7362514 19.2703367,1.7362514 C25.2735499,1.7362514 29.8007015,6.2619147 29.8007015,12.2633917 C29.8007015,16.9527587 23.1573075,28.9413266 19.265376,35.3922447" id="Fill-9" fill="#FFFFFF"></path>
            <path d="M19.2703367,-7.10542736e-15 C12.3739461,-7.10542736e-15 7,5.41015937 7,12.2636397 C7,19.4313816 19.2703367,38.6936027 19.2703367,38.6936027 C19.2703367,38.6936027 31.5369529,19.2932256 31.5369529,12.2636397 C31.5369529,5.4220651 26.2639574,-7.10542736e-15 19.2703367,-7.10542736e-15 M19.2703367,3.47250281 C24.2838866,3.47250281 28.0644501,7.25182604 28.0644501,12.2636397 C28.0644501,13.0883591 27.6532065,16.5482121 22.3608642,26.4411246 C21.2863726,28.4497194 20.2051841,30.3583558 19.2614074,31.9792705 C18.3206072,30.3717497 17.2446274,28.4802278 16.1750965,26.4875073 C11.0283513,16.8979428 10.4725028,13.3458204 10.4725028,12.2636397 C10.4725028,9.8710853 11.3723771,7.65190797 13.0064377,6.01511897 C14.6434747,4.37560157 16.8678608,3.47250281 19.2703367,3.47250281" id="Fill-11" fill="#EC0000"></path>
            <path d="M22.4618148,11.947642 C22.4618148,13.7516072 20.9993951,15.2140269 19.1954299,15.2140269 C17.3917127,15.2140269 15.9292929,13.7516072 15.9292929,11.947642 C15.9292929,10.1436768 17.3917127,8.68125701 19.1954299,8.68125701 C20.9993951,8.68125701 22.4618148,10.1436768 22.4618148,11.947642" id="Fill-13" fill="#FF0000"></path>
        </g>
    </g>
</svg>