<svg id="bf1f39e0-6844-436d-83cf-9c02c4cf373c" data-name="Layer 1" xmlns="http://www.w3.org/2000/svg" viewBox="0 0 1024 1024"><title>Icoontjes_data</title><path d="M523,279.4V240.8H308.5v38.6H240.6V717.3H372.5V586h87.6V717.3H590.9V279.4ZM364,535.8H293.9V448.2H364Zm0-105.7h0l-70.1.1V342.6H364Zm87.1,105.7H381V448.2h70.1Zm0-105.7h0l-70.1.1V342.6h70.1Zm87.6,105.7H468.6V448.2h70.1Zm0-105.7h0l-70.1.1V342.6h70.1Z"/><circle cx="665.4" cy="565.1" r="50.2"/><path d="M665.4,618.3a53.2,53.2,0,1,1,53.2-53.2A53.27,53.27,0,0,1,665.4,618.3Zm0-100.4a47.2,47.2,0,1,0,47.2,47.2A47.25,47.25,0,0,0,665.4,517.9Z" fill="#fff"/><path d="M722.9,630.2c-7.1,37-22.8,79.4-42,95.2l7.3-61.9.1-.3-.1-.2v-.1h0l-11.3-23H654l-11.3,23h0v.1l-.1.2.1.3,7.3,61.9c-19.3-15.7-34.9-58.2-42-95.2-48.1,18.6-59.6,84-59.6,147.2,0,2.1,0,4.2.1,6.2H782.3c.1-2,.1-4.1.1-6.2C782.4,714.3,766,645.7,722.9,630.2Z"/><path d="M785.15,786.6H545.65l-.15-2.85c-.1-2.08-.1-4.25-.1-6.35,0-36.92,4-67.63,11.92-91.28,10.08-30.13,26.76-49.89,49.6-58.72l3.35-1.29.68,3.52C617,661.34,629.9,698.78,646,717.32l-6.28-53.17-.39-1.18.65-1.39,12.12-24.68h26.64L691.54,663l-.4,1.19-6.26,53.1c16.15-18.68,29-56.06,35.07-87.63l.67-3.44,3.3,1.19c20.87,7.5,36.93,26.88,47.72,57.57,8.87,25.23,13.76,58.06,13.76,92.45,0,2.1,0,4.28-.1,6.35Zm-233.74-6h228c0-1.06,0-2.14,0-3.2,0-87.65-27.44-130.95-54.26-143.06-6.83,33.29-21.66,76.37-42.33,93.38l-5.76,4.74,8.12-68.92L675,642.9H655.87l-10.14,20.64,8.12,68.86-5.74-4.67c-20.63-16.78-35.48-59.92-42.34-93.35-36.08,16.29-54.37,64.37-54.37,143C551.4,778.46,551.4,779.54,551.41,780.6Z" fill="#fff"/></svg>