<svg id="fd478056-2576-4916-92a5-b7db5f3111ff" data-name="Layer 1" xmlns="http://www.w3.org/2000/svg" viewBox="0 0 1024 1024"><title>Icoontjes_data</title><path d="M616.9,372l-5.8-41.6-41.8,2.9-5.8-41.6-41.7,2.9L516,253l-83.6,5.8,5.8,41.6-41.8,2.9,5.8,41.6-41.8,2.9,5.8,41.6-41.8,2.9,55,391.6h127L491,674.5l83.5-5.8L590.7,784h126L658.4,369.1ZM476.5,627.6l-66.8,4.7L398,549.2l66.8-4.7ZM462.4,527.3,395.6,532l-11.7-83.2,66.8-4.7,11.7,83.2Zm97.1,94.5-66.8,4.7L481,543.4l66.8-4.7,11.7,83.1ZM545.4,521.5l-66.8,4.7L466.9,443l66.8-4.7,11.7,83.2ZM643,616l-66.8,4.7-11.7-83.1,66.8-4.7L643,616ZM628.9,515.7l-66.8,4.7-11.7-83.2,66.8-4.7,11.7,83.2Z"/></svg>