<svg id="ffd919b3-4ecd-4db1-a5f7-3a5cbb5c523d" data-name="Layer 1" xmlns="http://www.w3.org/2000/svg" xmlns:xlink="http://www.w3.org/1999/xlink" viewBox="0 0 1024 1024"><defs><clipPath id="a96d71be-e903-474b-b9cb-40bf66125a9e"><path d="M705.1,522.5,799.6,428,591.1,221.2l-74.9,74.9-67.7-67.7L245.3,431.6l96.3,96.3-21.4,21.4a53.4,53.4,0,0,0,37.4,90.8,55.21,55.21,0,0,0,16,39.2,58.71,58.71,0,0,0,39.2,14.3,58.71,58.71,0,0,0,14.3,39.2,55.21,55.21,0,0,0,39.2,16,48,48,0,0,0,37.4-16l21.4-21.4,16,16a58.81,58.81,0,0,0,37.4,16,61.15,61.15,0,0,0,39.2-16,55.21,55.21,0,0,0,16-39.2,51.74,51.74,0,0,0,37.4-16,48,48,0,0,0,16-37.4,54.24,54.24,0,0,0,37.5-92.7l-19.5-19.6ZM591,271.1,747.9,428l-62.4,64.2-5.3,5.3L551.8,369.2,509,412a21.28,21.28,0,0,1-28.5,0,21.49,21.49,0,0,1,0-30.4L591,271.1Zm-219.2,328a19.6,19.6,0,0,1-26.7,0,17.87,17.87,0,0,1,0-25l21.4-21.4,26.7,25-21.4,21.4Zm53.5,53.5a19.6,19.6,0,0,1-26.7,0,16,16,0,0,1-5.3-12.5,19.41,19.41,0,0,1,5.3-12.5L420,606.2l26.7,26.7-21.4,19.7Zm53.4,55.2a17.87,17.87,0,0,1-25,0,19.53,19.53,0,0,1,0-26.8l19.6-21.4L500,686.3l-21.3,21.5Zm221.1-114a17.87,17.87,0,0,1-25,0L616,535l-28.5,28.5,58.8,58.8a17.87,17.87,0,0,1,0,25,19.41,19.41,0,0,1-12.5,5.3,19.9,19.9,0,0,1-14.3-5.3l-57-57L534,617l58.8,58.8a19.6,19.6,0,0,1,0,26.7,19.53,19.53,0,0,1-26.8,0L295.1,431.6l3.6-3.6L448.4,278.3l42.8,42.8-35.6,35.6a55.34,55.34,0,0,0,0,80.2,58.72,58.72,0,0,0,80.2,0l16-16h0l148,147.9a18.06,18.06,0,0,1,0,25Z" fill="none"/></clipPath></defs><title>Icoontjes_data</title><g clip-path="url(#a96d71be-e903-474b-b9cb-40bf66125a9e)"><rect x="156.1" y="132.1" width="732.6" height="705.9"/></g></svg>