<svg id="f2de0d1e-75b9-4486-a115-ea403a87e89b" data-name="Layer 1" xmlns="http://www.w3.org/2000/svg" viewBox="0 0 1024 1024"><title>Icoontjes_data</title><path d="M764.8,694.4V289l.4-.2-.4-.8.6-41.3-31.9,17.9L598.4,334.4,419.2,252.6l-.2-.3L259.2,344.6v.1h0V780l36-20.1v-.3l126.9-73.2,178.6,93.1.2.4L764.8,695l-.3-.6ZM634.5,602.2,728.9,535v16l-72,51.2Zm94.3-36.6v16l-28.9,20.6H677.4Zm0,30.6v6h-8.4Zm-114.9,6H591.2L716,513.4l12.8,1.7v5.3ZM506,496l-30.1,21.4v-13ZM475.9,602.2V593l132.4-94.2,18.7,2.5L485.3,602.2Zm78.9-110.6-78.9,56.2V532l60.3-42.9Zm-78.9,86.9v-16L572.1,494l18.9,2.6Zm168.2-74.8,18.8,2.5L528,602.2H505.6Zm36.1,4.9,18.5,2.5L570.6,602.3h-22Zm-91.8-48.8-4-24.8H728.8v43.8Zm11.3-85.1.2-.5,128.8-66.6v91.5H578.6l-5.9-36.7ZM420.7,293l112.8,51.4,17.6,110.3L531.5,452l-.2-.7L440,477l-7.7-2.3L344.5,337ZM295.2,365.5l18.1-10.4L394,481.6H295.3V365.5Zm0,352.6V517.6h98.7L340.7,692Zm126.3-72.7-.3.5-.1-.1-34.8,20,45.4-148.9,8.2-2.3V655Zm179.6,93.7L475.9,673.8V638.3H636.7v82.4ZM672.7,702V638.2h56.1V673Z"/></svg>