<svg id="ece071ab-22d2-4dbb-99b6-48ce4cda6e2b" data-name="Layer 1" xmlns="http://www.w3.org/2000/svg" xmlns:xlink="http://www.w3.org/1999/xlink" viewBox="0 0 1024 1024"><defs><clipPath id="f804b01f-b289-4ac0-96a9-c0d1eca9c61f"><path d="M654.5,720V672.2a14.33,14.33,0,0,0-15.9-15.9h-51l-14.3-51L543,611.7l15.9,60.6V720H479.2V527.1h3.2A63.53,63.53,0,0,0,527,547.8h1.6a38.49,38.49,0,0,0,22.3-4.8,63.58,63.58,0,0,0,39.8-60.6h0v-9.6h0a65.4,65.4,0,0,0-31.9-44.6,46,46,0,0,0,6.4-27.1A54.16,54.16,0,0,0,519,346.9V335.7a54.18,54.18,0,0,0-30.3-49.4,70.13,70.13,0,0,0-51,0,54.18,54.18,0,0,0-30.3,49.4V347a54.16,54.16,0,0,0-46.2,54.2,45.77,45.77,0,0,0,6.4,25.5,65.4,65.4,0,0,0-31.9,44.6h0v9.6h0a64,64,0,0,0,39.8,60.6,38.66,38.66,0,0,0,22.3,4.8h1.6A63.66,63.66,0,0,0,444,528.8h3.2V720H255.9v63.8h510V720Zm-31.9,0H590.7V688.1h31.9V720Z" fill="none"/></clipPath></defs><title>Icoontjes_data</title><polygon points="768 784 396.6 784 256 784 256 240 768 240 768 784" fill="none"/><g clip-path="url(#f804b01f-b289-4ac0-96a9-c0d1eca9c61f)"><rect x="176.3" y="202" width="669.4" height="661.5"/></g></svg>