<?xml version="1.0" encoding="UTF-8"?>
<svg width="34px" height="26px" viewBox="0 0 34 26" version="1.1" xmlns="http://www.w3.org/2000/svg" xmlns:xlink="http://www.w3.org/1999/xlink">
    <!-- Generator: Sketch 41.2 (35397) - http://www.bohemiancoding.com/sketch -->
    <title>icoon-klok-zwart</title>
    <desc>Created with Sketch.</desc>
    <defs></defs>
    <g id="Styleguide" stroke="none" stroke-width="1" fill="none" fill-rule="evenodd">
        <g id="icoon-klok-zwart" fill="#000000">
            <path d="M17.6428571,20 C21.8214286,20 25.1428571,16.6250005 25.1428571,12.5 C25.1428571,8.375 21.8214286,5 17.6428571,5 C13.4642857,5 10.1428571,8.375 10.1428571,12.5 L8,12.5 L10.6785714,15.7142857 L13.3571429,12.5 L11.2142857,12.5 C11.2142857,8.96428571 14.0535714,6.07142857 17.6428571,6.07142857 C21.2321429,6.07142857 24.0714286,8.96428571 24.0714286,12.5 C24.0714286,16.0357143 21.2321429,18.9285714 17.6428571,18.9285714 L17.6428571,20 Z" id="Page-1" stroke="#000000"></path>
            <path d="M18.3235294,12.6243059 C18.3235294,12.9358118 18.0272706,13.1882353 17.6617647,13.1882353 L17.6617647,13.1882353 C17.2962588,13.1882353 17,12.9358118 17,12.6243059 L17,8.56392941 C17,8.25242353 17.2962588,8 17.6617647,8 L17.6617647,8 C18.0272706,8 18.3235294,8.25242353 18.3235294,8.56392941 L18.3235294,12.6243059 Z" id="Fill-4"></path>
            <path d="M17.5340706,13.3235294 C17.2390824,13.3235294 17,13.0274824 17,12.6617647 L17,12.6617647 C17,12.2962588 17.2392941,12 17.5340706,12 L21.3805647,12 C21.6755529,12 21.9146353,12.2962588 21.9146353,12.6617647 L21.9146353,12.6617647 C21.9146353,13.0272706 21.6753412,13.3235294 21.3805647,13.3235294 L17.5340706,13.3235294 Z" id="Fill-5"></path>
            <polygon id="Fill-6" points="14 9.526932 14.5269299 9 15.5189501 9.99202024 14.9920202 10.5189522"></polygon>
            <polygon id="Fill-7" points="20.9920181 9 21.5189501 9.526932 20.5269299 10.5189522 20 9.99202024"></polygon>
            <polygon id="Fill-8" points="13 12.7452 14.4029412 12.7452 14.4029412 12 13 12"></polygon>
            <polygon id="Fill-9" points="14.5268558 16.5188866 14 15.9918805 14.99216 15 15.5190158 15.5270061"></polygon>
            <polygon id="Fill-10" points="21.5189522 15.9920202 20.9920202 16.5189501 20 15.526932 20.526932 15"></polygon>
            <polygon id="Fill-11" points="17 17.4029412 17.7452 17.4029412 17.7452 16 17 16"></polygon>
        </g>
    </g>
</svg>