<?xml version="1.0" encoding="UTF-8"?>
<svg width="26px" height="26px" viewBox="0 0 26 26" version="1.1" xmlns="http://www.w3.org/2000/svg" xmlns:xlink="http://www.w3.org/1999/xlink">
    <!-- Generator: Sketch 44.1 (41455) - http://www.bohemiancoding.com/sketch -->
    <title>thema-onderwijs-jeugd</title>
    <desc>Created with Sketch.</desc>
    <defs></defs>
    <g id="Dataportaal" stroke="none" stroke-width="1" fill="none" fill-rule="evenodd">
        <g id="Homepage---breed" transform="translate(-975.000000, -677.000000)" fill="#FF0000">
            <g id="themas" transform="translate(202.000000, 505.000000)">
                <g id="thema-copy-2" transform="translate(770.000000, 165.000000)">
                    <g id="thema-onderwijs-jeugd" transform="translate(3.000000, 7.000000)">
                        <rect id="Rectangle-path" x="10.0208333" y="11.1041667" width="10.2916667" height="2.16666667"></rect>
                        <circle id="Oval" cx="7.42083333" cy="2.54583333" r="2.275"></circle>
                        <path d="M16.0333333,23.5625 L15.8708333,23.5625 L14.8958333,15.9791667 C14.7875,15.4916667 14.3541667,14.3541667 13.2708333,14.3541667 L8.39583333,14.3541667 L8.39583333,9.04583333 L10.5625,10.0208333 L15.9791667,10.0208333 L15.9791667,10.0208333 L17.8208333,10.0208333 L17.8208333,9.75 C17.8208333,8.72083333 17.0083333,7.85416667 15.9791667,7.85416667 L15.9791667,7.85416667 L11.375,7.85416667 L7.20416667,5.74166667 L7.20416667,5.74166667 C6.87916667,5.525 6.5,5.41666667 6.12083333,5.41666667 C5.0375,5.41666667 4.11666667,6.28333333 4.11666667,7.42083333 L4.11666667,7.42083333 L4.11666667,15.7083333 C4.11666667,16.25 4.44166667,17.1166667 5.525,17.1166667 L5.525,17.1166667 L12.1875,17.1166667 L13.975,25.7833333 L14.1375,25.7833333 L16.1958333,25.7833333 L17.875,25.7833333 L17.875,25.5125 C17.875,24.4291667 17.0625,23.5625 16.0333333,23.5625 Z" id="Shape"></path>
                        <polygon id="Shape" points="2.4375 18.2 2.4375 9.47916667 0.270833333 9.47916667 0.270833333 25.7291667 2.4375 25.7291667 2.4375 20.8 8.9375 20.8 8.9375 25.7291667 11.1041667 25.7291667 11.1041667 18.2"></polygon>
                    </g>
                </g>
            </g>
        </g>
    </g>
</svg>
