<?xml version="1.0" encoding="UTF-8"?>
<svg width="26px" height="26px" viewBox="0 0 26 26" version="1.1" xmlns="http://www.w3.org/2000/svg" xmlns:xlink="http://www.w3.org/1999/xlink">
    <!-- Generator: Sketch 42 (36781) - http://www.bohemiancoding.com/sketch -->
    <title>thema-kaart-rood</title>
    <desc>Created with Sketch.</desc>
    <defs></defs>
    <g id="Iconen" stroke="none" stroke-width="1" fill="none" fill-rule="evenodd">
        <g id="thema-kaart-rood" fill="#FF0000">
            <g id="thema-kaart" transform="translate(0.000000, 1.000000)">
                <path d="M25.0546914,0.0539614035 L18.5274074,3.51675088 C18.3733333,3.58923158 18.2962963,3.71535439 18.2962963,3.8954386 L18.2962963,23.8068772 C18.2962963,23.9240596 18.3393086,24.0255965 18.4256543,24.1111684 C18.511358,24.1970596 18.6134321,24.2398456 18.7315556,24.2398456 C18.8037778,24.2398456 18.8718272,24.2216456 18.9353827,24.1855649 L25.4626667,20.7227754 C25.6167407,20.650614 25.6937778,20.5244912 25.6937778,20.3440877 L25.6937778,0.432649123 C25.6937778,0.315785965 25.6507654,0.214249123 25.5644198,0.128357895 C25.4783951,0.0427859649 25.376321,0 25.2585185,0 C25.1859753,0 25.1179259,0.0182 25.0546914,0.0539614035" id="Fill-117"></path>
                <path d="M8.98765432,0.432649123 L8.98765432,20.3440877 C8.98765432,20.5155509 9.06918519,20.6464632 9.23224691,20.7365053 L16.1947901,24.1992947 C16.249037,24.2264351 16.3122716,24.2398456 16.3851358,24.2398456 C16.5026173,24.2398456 16.6046914,24.1970596 16.691037,24.1111684 C16.7770617,24.0255965 16.8200741,23.9240596 16.8200741,23.8068772 L16.8200741,3.8954386 C16.8200741,3.72429474 16.7385432,3.59370175 16.5754815,3.50334035 L9.61293827,0.0405508772 C9.55869136,0.0134105263 9.4951358,0 9.42259259,0 C9.30479012,0 9.20271605,0.0427859649 9.11669136,0.128357895 C9.03034568,0.214249123 8.98765432,0.315785965 8.98765432,0.432649123 Z" id="Fill-118"></path>
                <path d="M6.75839506,0.0539614035 L0.231111111,3.51675088 C0.077037037,3.58923158 0,3.71535439 0,3.8954386 L0,23.8068772 C0,23.9240596 0.0430123457,24.0255965 0.129037037,24.1111684 C0.215382716,24.1970596 0.317135802,24.2398456 0.435259259,24.2398456 C0.507802469,24.2398456 0.575530864,24.2216456 0.63908642,24.1855649 L7.16637037,20.7227754 C7.32044444,20.650614 7.39748148,20.5244912 7.39748148,20.3440877 L7.39748148,0.432649123 C7.39748148,0.315785965 7.35446914,0.214249123 7.26844444,0.128357895 C7.18209877,0.0427859649 7.08002469,0 6.96222222,0 C6.88967901,0 6.82162963,0.0182 6.75839506,0.0539614035" id="Fill-116"></path>
            </g>
        </g>
    </g>
</svg>