<?xml version="1.0" encoding="UTF-8"?>
<svg width="26px" height="26px" viewBox="0 0 26 26" version="1.1" xmlns="http://www.w3.org/2000/svg" xmlns:xlink="http://www.w3.org/1999/xlink">
    <!-- Generator: Sketch 41.1 (35376) - http://www.bohemiancoding.com/sketch -->
    <title>icoon-klok</title>
    <desc>Created with Sketch.</desc>
    <defs></defs>
    <g id="Styleguide" stroke="none" stroke-width="1" fill="none" fill-rule="evenodd">
        <g id="icoon-klok" fill="#FFFFFF">
            <path d="M13.6428571,20 C17.8214286,20 21.1428571,16.6250005 21.1428571,12.5 C21.1428571,8.375 17.8214286,5 13.6428571,5 C9.46428571,5 6.14285714,8.375 6.14285714,12.5 L4,12.5 L6.67857143,15.7142857 L9.35714286,12.5 L7.21428571,12.5 C7.21428571,8.96428571 10.0535714,6.07142857 13.6428571,6.07142857 C17.2321429,6.07142857 20.0714286,8.96428571 20.0714286,12.5 C20.0714286,16.0357143 17.2321429,18.9285714 13.6428571,18.9285714 L13.6428571,20 Z" id="Page-1" stroke="#FFFFFF"></path>
            <path d="M14.3235294,12.6243059 C14.3235294,12.9358118 14.0272706,13.1882353 13.6617647,13.1882353 L13.6617647,13.1882353 C13.2962588,13.1882353 13,12.9358118 13,12.6243059 L13,8.56392941 C13,8.25242353 13.2962588,8 13.6617647,8 L13.6617647,8 C14.0272706,8 14.3235294,8.25242353 14.3235294,8.56392941 L14.3235294,12.6243059 Z" id="Fill-4"></path>
            <path d="M13.5340706,13.3235294 C13.2390824,13.3235294 13,13.0274824 13,12.6617647 L13,12.6617647 C13,12.2962588 13.2392941,12 13.5340706,12 L17.3805647,12 C17.6755529,12 17.9146353,12.2962588 17.9146353,12.6617647 L17.9146353,12.6617647 C17.9146353,13.0272706 17.6753412,13.3235294 17.3805647,13.3235294 L13.5340706,13.3235294 Z" id="Fill-5"></path>
            <polygon id="Fill-6" points="10 9.526932 10.5269299 9 11.5189501 9.99202024 10.9920202 10.5189522"></polygon>
            <polygon id="Fill-7" points="16.9920181 9 17.5189501 9.526932 16.5269299 10.5189522 16 9.99202024"></polygon>
            <polygon id="Fill-8" points="9 12.7452 10.4029412 12.7452 10.4029412 12 9 12"></polygon>
            <polygon id="Fill-9" points="10.5268558 16.5188866 10 15.9918805 10.99216 15 11.5190158 15.5270061"></polygon>
            <polygon id="Fill-10" points="17.5189522 15.9920202 16.9920202 16.5189501 16 15.526932 16.526932 15"></polygon>
            <polygon id="Fill-11" points="13 17.4029412 13.7452 17.4029412 13.7452 16 13 16"></polygon>
        </g>
    </g>
</svg>