<svg xmlns="http://www.w3.org/2000/svg" xmlns:xlink="http://www.w3.org/1999/xlink" width="26" height="26" viewBox="0 0 26 26">
    <defs>
        <path id="a" d="M4.685.116H0v4.875h4.685V.116z"/>
    </defs>
    <g fill="none" fill-rule="evenodd">
        <path fill="#666" d="M10.5 20.353l1.405-1.463-1.405-1.462.937-.975 1.406 1.463 1.405-1.463.937.975-1.405 1.462 1.405 1.463-.937.975-1.405-1.463-1.406 1.463z"/>
        <g transform="translate(10.5 4.627)">
            <mask id="b" fill="#fff">
                <use xlink:href="#a"/>
            </mask>
            <path fill="#666" d="M0 4.016l1.406-1.462L0 1.091.937.116 2.343 1.58 3.748.116l.937.975L3.28 2.554l1.405 1.462-.937.975L2.343 3.53.937 4.99z" mask="url(#b)"/>
        </g>
        <path fill="#666" d="M10.5 14.503l1.406-1.462-1.406-1.463.937-.975 1.406 1.463 1.405-1.463.937.975-1.405 1.463 1.405 1.462-.937.975-1.405-1.462-1.406 1.462z"/>
    </g>
</svg>
