<?xml version="1.0" encoding="UTF-8"?>
<svg width="26px" height="26px" viewBox="0 0 26 26" version="1.1" xmlns="http://www.w3.org/2000/svg" xmlns:xlink="http://www.w3.org/1999/xlink">
    <!-- Generator: Sketch 42 (36781) - http://www.bohemiancoding.com/sketch -->
    <title>thema-openbare-ruimte</title>
    <desc>Created with Sketch.</desc>
    <defs></defs>
    <g id="Iconen" stroke="none" stroke-width="1" fill="none" fill-rule="evenodd">
        <g id="thema-openbare-ruimte" fill="#000000">
            <g>
                <path d="M9.3351011,1.89399695 C10.8092618,-0.134975126 13.6491824,-0.585044676 15.6781545,0.889116054 C17.7075839,2.36327678 18.1571961,5.20365473 16.6830354,7.23262681 L14.7217567,9.93212933 C13.6647336,9.40384648 12.3913661,9.3544486 11.2611609,9.88044452 L9.34516363,7.24817799 L9.32686812,7.22347905 C8.20809767,5.67522151 8.15138159,3.52321213 9.3351011,1.89399695" id="Fill-34"></path>
                <path d="M0.914501075,13.2923742 C-0.559659655,11.2634021 -0.110047494,8.42348156 1.91938197,6.94932083 C3.94835404,5.4751601 6.78827461,5.92477227 8.26243534,7.95374434 L10.1907821,10.6079655 C9.27326227,11.4797465 8.83417003,12.7348185 8.98144889,13.9688507 L6.00980065,14.937598 L5.98052783,14.9472031 C4.16241151,15.5326594 2.09822058,14.9215894 0.914501075,13.2923742" id="Fill-36"></path>
                <path d="M9.11692714,24.9311545 C6.73165,25.7064267 4.16982119,24.4010421 3.39454895,22.0153075 C2.6197341,19.6300304 3.92511875,17.0682016 6.31039588,16.2933867 L9.38449897,15.2944519 C9.4169735,15.3589436 9.45173497,15.4225204 9.48786861,15.48564 C10.101683,16.5486091 11.1317202,17.2214265 12.253235,17.4176458 L12.2559793,20.5937464 L12.2559793,20.6243914 C12.2514054,22.5344426 11.0324671,24.3086497 9.11692714,24.9311545" id="Fill-38"></path>
                <path d="M22.8590507,20.6081541 C22.8590507,23.1164685 20.8259622,25.1495571 18.3176477,25.1490997 C15.8097907,25.1490997 13.7767021,23.1160112 13.7767021,20.6081541 L13.7767021,17.3886017 C14.1718851,17.3030702 14.5606647,17.1557913 14.9293192,16.943106 C15.6410146,16.5323718 16.1775304,15.9350234 16.5137104,15.2489418 L19.70399,16.2826381 L19.7332628,16.2917859 C21.5481774,16.88639 22.8590507,18.5942758 22.8590507,20.6081541" id="Fill-41"></path>
                <path d="M22.8384225,6.29745181 C25.2236997,7.07272405 26.5290843,9.63455286 25.7538121,12.01983 C24.9789972,14.4051071 22.416711,15.7100344 20.0314339,14.9352195 L16.8983278,13.9170744 C16.9856888,13.1065833 16.8260605,12.2622455 16.3869683,11.5020671 C16.2122461,11.1997338 16.0041347,10.9289602 15.7694948,10.691576 L17.7495264,7.96142846 L17.7673645,7.93672952 C18.8939105,6.39396062 20.92334,5.67494708 22.8384225,6.29745181" id="Fill-43"></path>
            </g>
        </g>
    </g>
</svg>