<?xml version="1.0" encoding="UTF-8"?>
<svg width="26px" height="26px" viewBox="0 0 26 26" version="1.1" xmlns="http://www.w3.org/2000/svg" xmlns:xlink="http://www.w3.org/1999/xlink">
    <!-- Generator: Sketch 42 (36781) - http://www.bohemiancoding.com/sketch -->
    <title>thema-werk en inkomen-rood</title>
    <desc>Created with Sketch.</desc>
    <defs></defs>
    <g id="Iconen" stroke="none" stroke-width="1" fill="none" fill-rule="evenodd">
        <g id="thema-werk-en-inkomen-rood">
            <g id="thema-werk-en-inkomen" transform="translate(0.000000, 1.000000)">
                <path d="M19.3916667,14.0833333 L19.9875,14.4083333 L20.6916667,13.2166667 L20.0416667,12.9458333 C18.7958333,12.2416667 17.6041667,12.35 16.7916667,13.2708333 C16.3583333,13.7583333 16.0875,14.4625 15.925,15.1666667 L14.625,15.1666667 L14.625,16.25 L15.8166667,16.25 L15.8166667,16.7916667 L14.625,16.7916667 L14.625,17.875 L15.9791667,17.875 C16.1416667,18.4708333 16.3583333,19.0125 16.6833333,19.3916667 C17.1708333,20.0416667 17.7666667,20.3666667 18.4708333,20.3666667 C18.9041667,20.3666667 19.3375,20.2583333 19.7708333,20.0416667 L20.3666667,19.7166667 L19.7708333,18.525 L19.175,18.85 C18.3625,19.2291667 17.9833333,18.9583333 17.7666667,18.6333333 C17.6041667,18.4166667 17.4958333,18.2 17.3875,17.9291667 L19.8791667,17.9291667 L19.8791667,16.8458333 L17.1708333,16.8458333 L17.1708333,16.3041667 L19.8791667,16.3041667 L19.8791667,15.2208333 L17.3333333,15.2208333 C17.4416667,14.7875 17.6041667,14.4625 17.8208333,14.1916667 C17.9833333,13.975 18.4166667,13.5416667 19.3916667,14.0833333 Z" id="Shape" fill="#FF0000"></path>
                <rect id="Rectangle-path" x="7.36666667" y="2.275" width="3.30416667" height="1.08333333"></rect>
                <path d="M17.9833333,8.39583333 L17.6583333,8.39583333 L17.6583333,3.4125 L12.8375,3.4125 L12.8375,0.1625 L5.2,0.1625 L5.2,3.4125 L0.325,3.4125 L0.325,15.8166667 L10.3458333,15.8166667 L10.3458333,16.0333333 C10.3458333,20.2583333 13.7583333,23.6708333 17.9833333,23.6708333 C22.2083333,23.6708333 25.6208333,20.2583333 25.6208333,16.0333333 C25.675,11.8083333 22.2083333,8.39583333 17.9833333,8.39583333 Z M7.36666667,3.4125 L7.36666667,2.32916667 L10.6708333,2.32916667 L10.6708333,3.4125 L7.36666667,3.4125 Z M17.9833333,22.1 C14.6791667,22.1 11.9708333,19.3916667 11.9708333,16.0875 L11.9708333,15.8708333 C12.0791667,12.7833333 14.5708333,10.2375 17.6583333,10.075 L17.9833333,10.075 C21.2875,10.075 23.9958333,12.7833333 23.9958333,16.0875 C24.05,19.3916667 21.3416667,22.1 17.9833333,22.1 Z" id="Shape" fill="#FF0000"></path>
            </g>
        </g>
    </g>
</svg>