<?xml version="1.0" encoding="UTF-8"?>
<svg width="26px" height="26px" viewBox="0 0 26 26" version="1.1" xmlns="http://www.w3.org/2000/svg" xmlns:xlink="http://www.w3.org/1999/xlink">
    <!-- Generator: Sketch 42 (36781) - http://www.bohemiancoding.com/sketch -->
    <title>thema-wonen-leefomgeving</title>
    <desc>Created with Sketch.</desc>
    <defs></defs>
    <g id="Iconen" stroke="none" stroke-width="1" fill="none" fill-rule="evenodd">
        <g id="thema-wonen-leefomgeving" fill="#000000">
            <g id="Shape">
                <path d="M23.7791667,8.88333333 C24.05,8.45 24.1583333,7.90833333 24.1583333,7.36666667 C24.1583333,5.74166667 22.9125,4.3875 21.3416667,4.17083333 C21.3958333,3.95416667 21.3958333,3.79166667 21.3958333,3.575 C21.3958333,1.7875 19.9333333,0.325 18.1458333,0.325 C16.3583333,0.325 14.8958333,1.7875 14.8958333,3.575 C14.8958333,3.79166667 14.8958333,3.95416667 14.95,4.17083333 C13.3791667,4.3875 12.1333333,5.74166667 12.1333333,7.36666667 C12.1333333,7.90833333 12.2958333,8.45 12.5125,8.88333333 C11.8083333,9.2625 11.2125,9.9125 10.8333333,10.6708333 L8.88333333,10.6708333 L8.88333333,7.42083333 L4.00833333,7.42083333 L4.00833333,10.6708333 L1.84166667,10.6708333 L1.84166667,13.9208333 L0.216666667,13.9208333 L0.216666667,25.7833333 L12.675,25.7833333 L12.675,15.6 C13.1625,15.8166667 13.7041667,15.9791667 14.3,15.9791667 C15.3833333,15.9791667 16.3041667,15.5458333 17.0083333,14.8416667 L17.0083333,25.675 L19.175,25.675 L19.175,14.8416667 C19.8791667,15.5458333 20.8,15.9791667 21.8833333,15.9791667 C23.9958333,15.9791667 25.675,14.3 25.675,12.1875 C25.7291667,10.7791667 24.9166667,9.53333333 23.7791667,8.88333333 Z M5.6875,22.5333333 L3.52083333,22.5333333 L3.52083333,19.2833333 L5.6875,19.2833333 L5.6875,22.5333333 Z M5.6875,17.6583333 L3.52083333,17.6583333 L3.52083333,14.4083333 L5.6875,14.4083333 L5.6875,17.6583333 Z M5.6875,10.6166667 L7.3125,10.6166667 L7.3125,12.7833333 L5.6875,12.7833333 L5.6875,10.6166667 Z M9.47916667,22.5333333 L7.3125,22.5333333 L7.3125,19.2833333 L9.47916667,19.2833333 L9.47916667,22.5333333 Z M9.47916667,17.6583333 L7.3125,17.6583333 L7.3125,14.4083333 L9.47916667,14.4083333 L9.47916667,17.6583333 Z"></path>
            </g>
        </g>
    </g>
</svg>