<?xml version="1.0" encoding="UTF-8"?>
<svg width="36px" height="61px" viewBox="0 0 36 61" version="1.1" xmlns="http://www.w3.org/2000/svg" xmlns:xlink="http://www.w3.org/1999/xlink">
    <!-- Generator: Sketch 44.1 (41455) - http://www.bohemiancoding.com/sketch -->
    <title>pop</title>
    <desc>Created with Sketch.</desc>
    <defs></defs>
    <g id="Symbols" stroke="none" stroke-width="1" fill="none" fill-rule="evenodd">
        <g id="icoon-pano-1" transform="translate(-36.000000, 0.000000)" fill="#EC0000">
            <g id="pop" transform="translate(36.000000, -1.000000)">
                <path d="M35.7446969,52.464397 L26.8035613,24.6670339 C29.8401734,22.2245133 31.7805095,18.5181982 31.7805095,14.3064766 C31.7805095,6.97780283 25.7913572,0.997436036 18.3685276,0.997436036 C11.0303267,0.997436036 4.9571025,6.97780283 4.9571025,14.3064766 C4.9571025,18.5181982 6.89688186,22.2245133 9.93349397,24.6670339 L0.992358308,52.464397 C0.992358308,52.6328659 0.908286355,52.7168223 0.908286355,52.8852912 C0.908286355,55.4123242 2.84806571,57.6869319 6.39077984,59.3716206 C9.59609262,60.803328 13.8982382,61.6456723 18.3685276,61.6456723 C22.8393738,61.6456723 27.1409626,60.803328 30.3462754,59.3716206 C33.8889895,57.7708884 35.8287689,55.4123242 35.8287689,52.8852912 C35.7446969,52.7168223 35.7446969,52.5483535 35.7446969,52.464397" id="Fill-144"></path>
                <path d="M7.58950112,13.9189426 C7.58950112,8.02253221 12.3971919,3.22144749 18.3863442,3.22144749 C24.3749397,3.22144749 29.1831872,8.02253221 29.1831872,13.9189426 C29.1831872,19.8153529 24.3749397,24.6164376 18.3863442,24.6164376 C12.3971919,24.6164376 7.58950112,19.8153529 7.58950112,13.9189426" id="Fill-145"></path>
                <path d="M17.9810172,58.9529504 C9.37728284,58.9529504 3.38868734,55.8365544 3.13535794,52.8880712 L11.823721,26.0175649 C13.6794284,26.9438656 15.7879084,27.5337847 17.9810172,27.5337847 C20.1741259,27.5337847 22.2826059,27.0283781 24.1383133,26.0175649 L32.8266764,52.8880712 C32.573347,55.8365544 26.5847515,58.9529504 17.9810172,58.9529504" id="Fill-146"></path>
            </g>
        </g>
    </g>
</svg>