<?xml version="1.0" encoding="UTF-8"?>
<svg viewBox="0 0 26 26" version="1.1" xmlns="http://www.w3.org/2000/svg" xmlns:xlink="http://www.w3.org/1999/xlink">
    <path d="M12.9409091,24.5181818 L8.15454545,20.3227273 C7.68181818,19.9090909 7.15,19.4363636 6.61818182,19.0227273 C3.54545455,16.4227273 0.0590909091,13.4681818 0.0590909091,8.85909091 C0.0590909091,4.60454545 3.54545455,1.11818182 7.8,1.11818182 C9.75,1.11818182 11.5818182,1.82727273 13,3.12727273 C14.4181818,1.82727273 16.25,1.11818182 18.2,1.11818182 C22.4545455,1.11818182 25.9409091,4.60454545 25.9409091,8.85909091 C25.9409091,13.4681818 22.4545455,16.4227273 19.3818182,18.9636364 C18.85,19.3772727 18.3181818,19.85 17.8454545,20.2636364 L12.9409091,24.5181818 Z M7.8,3.48181818 C4.84545455,3.48181818 2.42272727,5.90454545 2.42272727,8.85909091 C2.42272727,12.4045455 5.2,14.7090909 8.09545455,17.1318182 C8.62727273,17.6045455 9.15909091,18.0181818 9.69090909,18.4909091 L12.9409091,21.3272727 L16.25,18.4909091 C16.7818182,18.0181818 17.3136364,17.6045455 17.8454545,17.1318182 C20.8,14.65 23.5181818,12.3454545 23.5181818,8.85909091 C23.5181818,5.90454545 21.0954545,3.48181818 18.1409091,3.48181818 C16.4863636,3.48181818 14.8909091,4.25 13.8863636,5.60909091 L13,6.85 L12.0545455,5.60909091 C11.05,4.25 9.45454545,3.48181818 7.8,3.48181818 Z" fill="#000000"></path>
</svg>