<?xml version="1.0" encoding="UTF-8"?>
<svg viewBox="0 0 26 26" version="1.1" xmlns="http://www.w3.org/2000/svg" xmlns:xlink="http://www.w3.org/1999/xlink">
    <g id="thema-milieu-water" stroke="none" stroke-width="1" fill="none" fill-rule="evenodd">
        <path d="M4.86092271,22.6919469 L3.55431733,20.433654 L7.46143625,22.0939679 C8.97905749,21.4542694 12.1769454,20.30124 14.9661035,20.30124 C17.5914069,20.30124 19.5612914,21.0183312 20.3702863,21.873278 L19.529246,22.7143183 L20.3485196,23.5335919 C19.529246,24.3788646 17.5678263,25.0826539 14.9661035,25.0826539 C12.1769454,25.0826539 8.93371024,23.9882736 7.46143625,23.289926 L3.55431733,24.9496353 L4.86092271,22.6919469 Z M17.49648,22.0939679 C17.49648,21.7311899 17.7909348,21.4367351 18.1543174,21.4367351 C18.5170954,21.4367351 18.8115502,21.7311899 18.8115502,22.0939679 C18.8115502,22.4573505 18.5170954,22.7518053 18.1543174,22.7518053 C17.7909348,22.7518053 17.49648,22.4573505 17.49648,22.0939679 L17.49648,22.0939679 Z M17.4257383,8.93177791 C18.0690646,9.43603931 18.4826315,10.2202444 18.4826315,11.1017949 C18.4826315,12.6236486 17.2485817,13.8576983 15.726728,13.8576983 C14.9769869,13.8576983 14.2973828,13.5584065 13.8009816,13.0734933 L13.8009816,16.6009045 L30.1078521,16.6009045 L30.1078521,18.3621917 L-4.17043527,18.3621917 L-4.17043527,16.6009045 L12.1588065,16.6009045 L12.1588065,13.5311981 C11.6787303,14.3395884 10.7965752,14.8813369 9.7880524,14.8813369 C8.26559412,14.8813369 7.03214896,13.6472871 7.03214896,12.1254335 C7.03214896,10.951242 7.76556512,9.94876553 8.79948239,9.55152363 C8.03402084,9.10651597 7.51887609,8.27696364 7.51887609,7.32708994 C7.51887609,5.90741875 8.67009157,4.75620328 10.0903674,4.75620328 C10.3406842,4.75620328 10.5825362,4.79187645 10.811691,4.85899037 C10.6290927,4.52583925 10.525701,4.14371311 10.525701,3.73679713 C10.525701,2.4453075 11.5729201,1.39748375 12.8650144,1.39748375 C14.1571086,1.39748375 15.2043277,2.4453075 15.2043277,3.73679713 C15.2043277,4.08869178 15.1269351,4.42244753 14.9878702,4.72173937 C15.2702324,4.60806893 15.5791983,4.54579204 15.9026754,4.54579204 C17.259465,4.54579204 18.3598916,5.6462186 18.3598916,7.00300828 C18.3598916,7.78479484 17.9946951,8.48132857 17.4257383,8.93177791 L17.4257383,8.93177791 Z" fill="#000000"></path>
    </g>
</svg>