<?xml version="1.0" encoding="UTF-8"?>
<svg viewBox="0 0 26 26" version="1.1" xmlns="http://www.w3.org/2000/svg" xmlns:xlink="http://www.w3.org/1999/xlink">
    <path d="M17.9833333,9.39583333 L17.6583333,9.39583333 L17.6583333,4.4125 L12.8375,4.4125 L12.8375,1.1625 L5.2,1.1625 L5.2,4.4125 L0.325,4.4125 L0.325,16.8166667 L10.3458333,16.8166667 L10.3458333,17.0333333 C10.3458333,21.2583333 13.7583333,24.6708333 17.9833333,24.6708333 C22.2083333,24.6708333 25.6208333,21.2583333 25.6208333,17.0333333 C25.675,12.8083333 22.2083333,9.39583333 17.9833333,9.39583333 Z M7.36666667,4.4125 L7.36666667,3.32916667 L10.6708333,3.32916667 L10.6708333,4.4125 L7.36666667,4.4125 Z M17.9833333,23.1 C14.6791667,23.1 11.9708333,20.3916667 11.9708333,17.0875 L11.9708333,16.8708333 C12.0791667,13.7833333 14.5708333,11.2375 17.6583333,11.075 L17.9833333,11.075 C21.2875,11.075 23.9958333,13.7833333 23.9958333,17.0875 C24.05,20.3916667 21.3416667,23.1 17.9833333,23.1 Z M19.3916667,14.7852079 L19.9875,15.1102079 L20.6916667,13.9185412 L20.0416667,13.6477079 C18.7958333,12.9435412 17.6041667,13.0518746 16.7916667,13.9727079 C16.3583333,14.4602079 16.0875,15.1643746 15.925,15.8685412 L14.625,15.8685412 L14.625,16.9518746 L15.8166667,16.9518746 L15.8166667,17.4935412 L14.625,17.4935412 L14.625,18.5768746 L15.9791667,18.5768746 C16.1416667,19.1727079 16.3583333,19.7143746 16.6833333,20.0935412 C17.1708333,20.7435412 17.7666667,21.0685412 18.4708333,21.0685412 C18.9041667,21.0685412 19.3375,20.9602079 19.7708333,20.7435412 L20.3666667,20.4185412 L19.7708333,19.2268746 L19.175,19.5518746 C18.3625,19.9310412 17.9833333,19.6602079 17.7666667,19.3352079 C17.6041667,19.1185412 17.4958333,18.9018746 17.3875,18.6310412 L19.8791667,18.6310412 L19.8791667,17.5477079 L17.1708333,17.5477079 L17.1708333,17.0060412 L19.8791667,17.0060412 L19.8791667,15.9227079 L17.3333333,15.9227079 C17.4416667,15.4893746 17.6041667,15.1643746 17.8208333,14.8935412 C17.9833333,14.6768746 18.4166667,14.2435412 19.3916667,14.7852079 Z" fill="#040505"></path>
</svg>