<?xml version="1.0" encoding="UTF-8"?>
<svg viewBox="0 0 26 26" version="1.1" xmlns="http://www.w3.org/2000/svg" xmlns:xlink="http://www.w3.org/1999/xlink">
    <g id="thema-verkiezingen" stroke="none" stroke-width="1" fill="none" fill-rule="evenodd">
        <g>
            <path d="M7.68695652,14.8086957 C7.74347826,15.4869565 7.91304348,16.0521739 8.25217391,16.6173913 C8.53478261,17.0130435 8.8173913,17.4086957 9.15652174,17.7478261 C9.89130435,18.5956522 11.1913043,18.5391304 12.0391304,17.9173913 C11.7565217,15.7695652 10.0608696,14.0173913 7.85652174,13.7913043 C7.74347826,14.1304348 7.63043478,14.4695652 7.68695652,14.8086957 Z" id="Shape" fill="#FFFFFF"></path>
            <rect id="Rectangle-path" fill="#000000" transform="translate(17.527182, 8.641682) rotate(-45.000000) translate(-17.527182, -8.641682) " x="10.2359478" y="7.51125823" width="14.5824688" height="2.26084788"></rect>
            <path d="M26,6.83913043 L24.4173913,5.25652174 L13.8478261,15.826087 L13.8478261,15.826087 L11.0217391,16.4478261 L9.66521739,15.0913043 L10.173913,12.4913043 L20.9130435,1.75217391 L19.3304348,0.169565217 L8.25217391,11.2478261 L0,11.2478261 L0,25.8869565 L14.6956522,25.8869565 L14.6956522,18.2 L26,6.83913043 Z M7.34782609,23.3434783 C4.69130435,23.3434783 2.54347826,21.1956522 2.54347826,18.5391304 C2.54347826,15.8826087 4.69130435,13.7347826 7.34782609,13.7347826 L7.63043478,13.7347826 L6.44347826,19.6695652 L12.0956522,18.426087 L12.0956522,18.4826087 C12.0956522,21.1956522 9.94782609,23.3434783 7.34782609,23.3434783 Z" id="Shape" fill="#000000"></path>
        </g>
    </g>
</svg>