<?xml version="1.0" encoding="UTF-8"?>
<svg viewBox="0 0 26 26" version="1.1" xmlns="http://www.w3.org/2000/svg" xmlns:xlink="http://www.w3.org/1999/xlink">
    <path d="M10.4208333,4.82083333 C9.16438553,4.82083333 8.14583333,3.80228114 8.14583333,2.54583333 C8.14583333,1.28938553 9.16438553,0.270833333 10.4208333,0.270833333 C11.6772811,0.270833333 12.6958333,1.28938553 12.6958333,2.54583333 C12.6958333,3.80228114 11.6772811,4.82083333 10.4208333,4.82083333 Z M13.0208333,11.1041667 L23.3125,11.1041667 L23.3125,13.2708333 L13.0208333,13.2708333 L13.0208333,11.1041667 Z M19.0333333,23.5625 C20.0625,23.5625 20.875,24.4291667 20.875,25.5125 L20.875,25.7833333 L19.1958333,25.7833333 L17.1375,25.7833333 L16.975,25.7833333 L15.1875,17.1166667 L8.525,17.1166667 C7.44166667,17.1166667 7.11666667,16.25 7.11666667,15.7083333 L7.11666667,7.42083333 C7.11666667,6.28333333 8.0375,5.41666667 9.12083333,5.41666667 C9.5,5.41666667 9.87916667,5.525 10.2041667,5.74166667 L14.375,7.85416667 L18.9791667,7.85416667 C20.0083333,7.85416667 20.8208333,8.72083333 20.8208333,9.75 L20.8208333,10.0208333 L18.9791667,10.0208333 L13.5625,10.0208333 L11.3958333,9.04583333 L11.3958333,14.3541667 L16.2708333,14.3541667 C17.3541667,14.3541667 17.7875,15.4916667 17.8958333,15.9791667 L18.8708333,23.5625 L19.0333333,23.5625 Z M5.4375,18.2 L14.1041667,18.2 L14.1041667,25.7291667 L11.9375,25.7291667 L11.9375,20.8 L5.4375,20.8 L5.4375,25.7291667 L3.27083333,25.7291667 L3.27083333,9.47916667 L5.4375,9.47916667 L5.4375,18.2 Z" var:fill.fill="#000000"></path>
</svg>
