<?xml version="1.0" encoding="UTF-8"?>
<svg viewBox="0 0 26 26" version="1.1" xmlns="http://www.w3.org/2000/svg" xmlns:xlink="http://www.w3.org/1999/xlink">
    <path d="M7.15947318,24.796965 L8.12210908,20.4346933 C8.16647117,20.2379909 8.12966008,20.031786 8.02205842,19.8616908 C7.91540065,19.6915955 7.74455943,19.5718636 7.54917748,19.5272017 L6.38625695,24.796965 L3,24.796965 L4.15972545,16.9985785 C4.34189316,15.8953348 5.28010405,15.0496097 6.40142653,15.0496097 L6.40142653,15.0486594 L6.42030401,15.0486594 L6.43823762,15.0486594 L18.4830155,15.0486594 L18.4830155,15.0505599 C18.9332435,15.0505599 19.3815837,15.1883466 19.7534701,15.4420641 C20.0942087,15.7851055 20.4198452,16.0416738 20.5991813,16.5168003 L20.6001252,16.5177505 C20.6624209,16.6669402 20.7011197,16.838936 20.7247166,16.9976283 L21.8852867,24.796965 L7.15947318,24.796965 Z M7.22418885,7.58999991 L17.6606563,7.58999991 C17.7062747,7.87135461 17.7299927,8.16012352 17.7299927,8.45447388 C17.7299927,11.3945566 15.3637003,13.7787413 12.4424098,13.7787413 C9.52206321,13.7787413 7.15482687,11.3945566 7.15482687,8.45447388 C7.15482687,8.16012352 7.17855435,7.87135461 7.22418885,7.58999991 Z M22.2834303,27.9829328 C22.2768232,28.043749 22.2909813,27.9173654 22.2834303,27.9829328 Z M12.4300374,2.44214194 C13.100844,2.44214194 13.6599998,3.00598127 13.6599998,3.6826491 C13.6599998,4.35924114 13.100844,4.92308048 12.4300374,4.92308048 C11.7591556,4.92308048 11.1999998,4.35924114 11.1999998,3.6826491 C11.1999998,3.00598127 11.7591556,2.44214194 12.4300374,2.44214194 Z M7.0842943,5.11438033 L7.06220311,6.29411765 L17.7557159,6.29411765 L17.7336247,5.11438033 L18.2418555,4.45077252 L19.9210081,2.44520422 L12.4089818,1 L4.8969555,2.44520422 L6.55406139,4.43602766 L7.0842943,5.11438033 Z" var:fill.fill="#000000"></path>
</svg>
