<?xml version="1.0" encoding="UTF-8"?>
<svg viewBox="0 0 26 26" version="1.1" xmlns="http://www.w3.org/2000/svg" xmlns:xlink="http://www.w3.org/1999/xlink">
    <path d="M6.86027986,11.8135379 L8.00697879,11.8135379 L8.00697879,10.5537179 L6.86027986,10.5537179 L6.86027986,11.8135379 Z M4.31132247,11.8107721 L5.43644819,11.8107721 L5.43644819,10.5440376 L4.31132247,10.5440376 L4.31132247,11.8107721 Z M14.0159467,8.99380911 L15.9143889,8.99380911 L15.9143889,7.93174353 L14.0159467,7.93174353 L14.0159467,8.99380911 Z M11.1052232,8.98966042 L12.9804328,8.98966042 L12.9804328,7.92206324 L11.1052232,7.92206324 L11.1052232,8.98966042 Z M14.0259036,7.23891169 L15.9143889,7.23891169 L15.9143889,6.178229 L14.0259036,6.178229 L14.0259036,7.23891169 Z M11.1068827,7.23476299 L12.9671569,7.23476299 L12.9671569,6.15471974 L11.1068827,6.15471974 L11.1068827,7.23476299 Z M0,17.8263779 L3.50481642,17.8263779 L3.50481642,9.59813549 L8.79191163,9.59813549 L8.79191163,17.8001029 L10.4381133,17.8001029 L10.4381133,5 L16.5466498,5 L16.5466498,17.8001029 L18.9960386,17.8001029 L18.9960386,10.9782676 L22.6734407,10.9782676 L22.6734407,17.8263779 L25.997374,17.8263779 L25.997374,20.1372003 C25.8828701,20.1330516 25.7667067,20.1261371 25.6522027,20.1261371 C17.2170787,20.1247542 8.78029529,20.1247542 0.346830791,20.1261371 C0.230667368,20.1261371 0.116163423,20.1330516 0,20.1372003 L0,17.8263779 Z" fill="#000000"></path>
</svg>