<?xml version="1.0" encoding="UTF-8"?>
<svg viewBox="0 0 26 26" version="1.1" xmlns="http://www.w3.org/2000/svg" xmlns:xlink="http://www.w3.org/1999/xlink">
    <path d="M8.98765432,1.43264912 C8.98765432,1.31578596 9.03034568,1.21424912 9.11669136,1.12835789 C9.20271605,1.04278596 9.30479012,1 9.42259259,1 C9.4951358,1 9.55869136,1.01341053 9.61293827,1.04055088 L16.5754815,4.50334035 C16.7385432,4.59370175 16.8200741,4.72429474 16.8200741,4.8954386 L16.8200741,24.8068772 C16.8200741,24.9240596 16.7770617,25.0255965 16.691037,25.1111684 C16.6046914,25.1970596 16.5026173,25.2398456 16.3851358,25.2398456 C16.3122716,25.2398456 16.249037,25.2264351 16.1947901,25.1992947 L9.23224691,21.7365053 C9.06918519,21.6464632 8.98765432,21.5155509 8.98765432,21.3440877 L8.98765432,1.43264912 Z M6.75839506,1.0539614 C6.82162963,1.0182 6.88967901,1 6.96222222,1 C7.08002469,1 7.18209877,1.04278596 7.26844444,1.12835789 C7.35446914,1.21424912 7.39748148,1.31578596 7.39748148,1.43264912 L7.39748148,21.3440877 C7.39748148,21.5244912 7.32044444,21.650614 7.16637037,21.7227754 L0.63908642,25.1855649 C0.575530864,25.2216456 0.507802469,25.2398456 0.435259259,25.2398456 C0.317135802,25.2398456 0.215382716,25.1970596 0.129037037,25.1111684 C0.0430123457,25.0255965 0,24.9240596 0,24.8068772 L0,4.8954386 C0,4.71535439 0.077037037,4.58923158 0.231111111,4.51675088 L6.75839506,1.0539614 Z M25.0546914,1.0539614 C25.1179259,1.0182 25.1859753,1 25.2585185,1 C25.376321,1 25.4783951,1.04278596 25.5644198,1.12835789 C25.6507654,1.21424912 25.6937778,1.31578596 25.6937778,1.43264912 L25.6937778,21.3440877 C25.6937778,21.5244912 25.6167407,21.650614 25.4626667,21.7227754 L18.9353827,25.1855649 C18.8718272,25.2216456 18.8037778,25.2398456 18.7315556,25.2398456 C18.6134321,25.2398456 18.511358,25.1970596 18.4256543,25.1111684 C18.3393086,25.0255965 18.2962963,24.9240596 18.2962963,24.8068772 L18.2962963,4.8954386 C18.2962963,4.71535439 18.3733333,4.58923158 18.5274074,4.51675088 L25.0546914,1.0539614 Z" fill="#000000"></path>
</svg>