<?xml version="1.0" encoding="UTF-8"?>
<svg viewBox="0 0 26 26" version="1.1" xmlns="http://www.w3.org/2000/svg" xmlns:xlink="http://www.w3.org/1999/xlink">
    <path d="M19.2291667,4.05416667 C17.4416667,4.05416667 15.8708333,4.75833333 14.6791667,5.95 L14.6791667,5.73333333 L14.6791667,5.57083333 L14.6791667,5.02916667 L14.5708333,4 L0.325,4 L0.325,5.08333333 L0.325,14.1833333 C0.325,18.1375 3.52083333,21.3875 7.52916667,21.3875 C11.1583333,21.3333333 14.1375,18.625 14.625,15.05 C15.8166667,16.2416667 17.4416667,17 19.2291667,17 C22.8041667,17 25.7291667,14.075 25.7291667,10.5 C25.7291667,6.925 22.8041667,4.05416667 19.2291667,4.05416667 Z M12.5125,14.1833333 C12.5125,16.9458333 10.2375,19.2208333 7.475,19.2208333 C4.7125,19.2208333 2.4375,16.9458333 2.4375,14.1833333 L2.4375,6.16666667 L12.4583333,6.16666667 L12.4583333,14.1833333 L12.5125,14.1833333 Z M19.2291667,14.8333333 C19.0125,14.8333333 18.7958333,14.8333333 18.5791667,14.7791667 C20.3125,12.2333333 20.3125,8.82083333 18.6333333,6.275 C18.85,6.22083333 19.0125,6.22083333 19.2291667,6.22083333 L19.6625,6.22083333 C21.9916667,8.60416667 21.9375,12.3958333 19.6083333,14.7791667 L19.6625,14.8333333 L19.2291667,14.8333333 Z M15.2208333,12.1791667 C15.9791667,12.6125 16.7916667,12.8833333 17.6583333,13.0458333 C17.4958333,13.425 17.225,13.8041667 16.9541667,14.1833333 C16.1958333,13.75 15.6,13.0458333 15.2208333,12.1791667 Z M17.0083333,6.81666667 C17.2791667,7.14166667 17.4958333,7.52083333 17.6583333,7.9 C17.1708333,7.79166667 16.6833333,7.575 16.25,7.35833333 C16.5208333,7.19583333 16.7375,6.97916667 17.0083333,6.81666667 Z M18.2,9.63333333 C18.3083333,10.2291667 18.2541667,10.8791667 18.1458333,11.5291667 C16.9541667,11.3666667 15.8166667,10.7708333 14.95,9.95833333 C15.0041667,9.525 15.1125,9.09166667 15.3291667,8.7125 C16.1958333,9.2 17.1708333,9.525 18.2,9.63333333 Z M22.425,7.68333333 C23.075,8.44166667 23.5083333,9.41666667 23.5083333,10.5541667 C23.5083333,11.6916667 23.075,12.7208333 22.3166667,13.4791667 C23.1291667,11.6375 23.1833333,9.525 22.425,7.68333333 Z M5.3625,9.0375 C6.55416667,9.0375 6.825,10.3375 6.825,11.0958333 L3.79166667,11.0958333 C3.84583333,10.3375 4.00833333,9.0375 5.3625,9.0375 Z M9.64166667,9.0375 C10.8333333,9.0375 11.1041667,10.3375 11.1041667,11.0958333 L8.07083333,11.0958333 C8.125,10.3375 8.2875,9.0375 9.64166667,9.0375 Z M7.3125,16.5125 C5.79583333,16.5125 4.60416667,15.3208333 4.49583333,13.8583333 L10.1291667,13.8583333 C10.075,15.3208333 8.82916667,16.5125 7.3125,16.5125 Z" var:fill.fill="#000000"></path>
</svg>
