<?xml version="1.0" encoding="UTF-8"?>
<svg viewBox="0 0 26 26" version="1.1" xmlns="http://www.w3.org/2000/svg" xmlns:xlink="http://www.w3.org/1999/xlink">
    <path d="M21.8291667,15.2166667 L25.6208333,11.1 L16.9,2.325 L16.9,2.325 L16.9,2.325 L12.8375,6.3875 L8.88333333,2.4875 L8.88333333,2.4875 L8.88333333,2.4875 L0.379166667,11.0458333 L4.17083333,14.7291667 L4.11666667,14.7833333 C3.14166667,15.7583333 3.14166667,17.3833333 4.11666667,18.3583333 C4.60416667,18.8458333 5.25416667,19.1166667 5.90416667,19.1166667 L6.06666667,19.1166667 C6.0125,19.8208333 6.22916667,20.525 6.77083333,21.0666667 C7.25833333,21.5541667 7.90833333,21.825 8.55833333,21.825 C8.55833333,22.475 8.82916667,23.125 9.31666667,23.6125 C9.80416667,24.1 10.4541667,24.3708333 11.1041667,24.3708333 C11.7541667,24.3708333 12.4041667,24.1 12.8916667,23.6125 L13.0541667,23.45 L13.2166667,23.6125 L13.2708333,23.6666667 C13.7583333,24.1541667 14.4083333,24.425 15.0583333,24.425 C15.7083333,24.425 16.3583333,24.1541667 16.8458333,23.6666667 C17.2791667,23.2333333 17.55,22.6375 17.55,22.0416667 C17.9291667,22.0416667 18.3625,21.9333333 18.7416667,21.7166667 C19.6083333,21.2833333 20.0958333,20.4166667 20.0958333,19.55 C20.6916667,19.4958333 21.2875,19.2791667 21.7208333,18.8458333 C22.8041667,17.8166667 22.8041667,16.1916667 21.8291667,15.2166667 L21.8291667,15.2166667 Z M20.6375,14.0791667 L15.1666667,8.60833333 L12.675,11.1 L12.35,11.3708333 C12.0791667,11.4791667 11.7,11.425 11.4833333,11.2083333 C11.1583333,10.8833333 11.1583333,10.3958333 11.4291667,10.125 L16.9,4.65416667 L23.4,11.1 L20.6375,14.0791667 Z M5.25416667,17.2208333 C4.875,16.8416667 4.875,16.3 5.25416667,15.9208333 L5.30833333,15.8666667 L6.60833333,17.1125 L6.5,17.2208333 C6.175,17.6 5.63333333,17.6 5.25416667,17.2208333 Z M7.9625,18.6291667 L8.07083333,18.5208333 L9.37083333,19.7666667 L9.2625,19.875 C8.88333333,20.2541667 8.34166667,20.2541667 7.9625,19.875 C7.58333333,19.6041667 7.58333333,19.0083333 7.9625,18.6291667 Z M11.7541667,22.475 C11.375,22.8541667 10.8333333,22.8541667 10.4541667,22.475 C10.2916667,22.3125 10.1833333,22.0958333 10.1833333,21.825 C10.1833333,21.6083333 10.2916667,21.3375 10.4541667,21.175 L10.6166667,21.0125 L11.9166667,22.2583333 L11.7541667,22.475 Z M20.6916667,17.6541667 C20.3666667,17.9791667 19.7708333,17.9791667 19.3916667,17.6541667 L17.0083333,15.2708333 L15.8708333,16.4083333 L18.2541667,18.7916667 C18.2541667,18.7916667 18.6333333,19.1708333 18.5791667,19.4958333 C18.525,19.8208333 18.4166667,20.0916667 18.0916667,20.2541667 C17.9291667,20.3083333 17.4416667,20.5791667 17.0083333,20.1458333 L17.0083333,20.1458333 L14.5166667,17.7625 L13.3791667,18.9541667 L15.8166667,21.3375 C16.1416667,21.7166667 16.0875,22.2583333 15.7625,22.5833333 C15.4375,22.9083333 14.8416667,22.9083333 14.4625,22.5833333 L2.70833333,11.0458333 L8.9375,4.81666667 L11.7,7.57916667 L10.2916667,8.93333333 C9.37083333,9.85416667 9.37083333,11.425 10.2916667,12.3458333 C10.7791667,12.8333333 11.375,13.05 12.025,13.05 C12.6208333,13.05 13.1625,12.8333333 13.5958333,12.4541667 L15.1125,10.9375 C15.1125,10.9375 20.6375,16.3541667 20.7458333,16.5166667 C21.0708333,16.8416667 20.9625,17.3833333 20.6916667,17.6541667 Z" var:fill.fill="#000000"></path>
</svg>
