<?xml version="1.0" encoding="UTF-8"?>
<svg width="70px" height="70px" viewBox="0 0 70 70" version="1.1" xmlns="http://www.w3.org/2000/svg" xmlns:xlink="http://www.w3.org/1999/xlink">
    <!-- Generator: Sketch 43.2 (39069) - http://www.bohemiancoding.com/sketch -->
    <title>loc icoon</title>
    <desc>Created with Sketch.</desc>
    <defs></defs>
    <g id="Dataportaal" stroke="none" stroke-width="1" fill="none" fill-rule="evenodd">
        <g id="loc-icoon">
            <path d="M35.1960784,63.5802469 C50.5734185,63.5802469 63.0392157,52.0833615 63.0392157,37.9012346 C63.0392157,23.7191077 50.5734185,12.2222222 35.1960784,12.2222222 C19.8187383,12.2222222 7.35294118,23.7191077 7.35294118,37.9012346 C7.35294118,52.0833615 19.8187383,63.5802469 35.1960784,63.5802469 Z M35.1960784,70 C15.9744033,70 0.392156863,55.6288932 0.392156863,37.9012346 C0.392156863,20.1735759 15.9744033,5.80246914 35.1960784,5.80246914 C54.4177535,5.80246914 70,20.1735759 70,37.9012346 C70,55.6288932 54.4177535,70 35.1960784,70 Z" id="Oval" fill="#666666" fill-rule="nonzero"></path>
            <path d="M34.8039216,57.7777778 C50.1812617,57.7777778 62.6470588,46.2808923 62.6470588,32.0987654 C62.6470588,17.9166385 50.1812617,6.41975309 34.8039216,6.41975309 C19.4265815,6.41975309 6.96078431,17.9166385 6.96078431,32.0987654 C6.96078431,46.2808923 19.4265815,57.7777778 34.8039216,57.7777778 Z M34.8039216,64.1975309 C15.5822465,64.1975309 0,49.8264241 0,32.0987654 C0,14.3711068 15.5822465,0 34.8039216,0 C54.0255967,0 69.6078431,14.3711068 69.6078431,32.0987654 C69.6078431,49.8264241 54.0255967,64.1975309 34.8039216,64.1975309 Z" id="Oval" fill="#FFFFFF" fill-rule="nonzero"></path>
            <path d="M34.8039216,35.308642 C36.7260891,35.308642 38.2843137,33.8715313 38.2843137,32.0987654 C38.2843137,30.3259996 36.7260891,28.8888889 34.8039216,28.8888889 C32.8817541,28.8888889 31.3235294,30.3259996 31.3235294,32.0987654 C31.3235294,33.8715313 32.8817541,35.308642 34.8039216,35.308642 Z M34.8039216,38.5185185 C30.9595865,38.5185185 27.8431373,35.6442972 27.8431373,32.0987654 C27.8431373,28.5532337 30.9595865,25.6790123 34.8039216,25.6790123 C38.6482566,25.6790123 41.7647059,28.5532337 41.7647059,32.0987654 C41.7647059,35.6442972 38.6482566,38.5185185 34.8039216,38.5185185 Z" id="Oval" fill="#FFFFFF" fill-rule="nonzero"></path>
            <ellipse id="Oval" fill="#666666" cx="34.8039216" cy="32.0987654" rx="3.48039216" ry="3.20987654"></ellipse>
            <path d="M34.8039216,48.1481481 C44.4147591,48.1481481 52.2058824,40.9625947 52.2058824,32.0987654 C52.2058824,23.2349361 44.4147591,16.0493827 34.8039216,16.0493827 C25.193084,16.0493827 17.4019608,23.2349361 17.4019608,32.0987654 C17.4019608,40.9625947 25.193084,48.1481481 34.8039216,48.1481481 Z M34.8039216,57.7777778 C19.4265815,57.7777778 6.96078431,46.2808923 6.96078431,32.0987654 C6.96078431,17.9166385 19.4265815,6.41975309 34.8039216,6.41975309 C50.1812617,6.41975309 62.6470588,17.9166385 62.6470588,32.0987654 C62.6470588,46.2808923 50.1812617,57.7777778 34.8039216,57.7777778 Z" id="Oval" fill="#009DE6" fill-rule="nonzero"></path>
        </g>
    </g>
</svg>