<?xml version="1.0" encoding="UTF-8"?>
<svg width="70px" height="35px" viewBox="0 0 70 35" version="1.1" xmlns="http://www.w3.org/2000/svg" xmlns:xlink="http://www.w3.org/1999/xlink">
    <!-- Generator: Sketch 43.2 (39069) - http://www.bohemiancoding.com/sketch -->
    <title>loc icoon</title>
    <desc>Created with Sketch.</desc>
    <defs></defs>
    <g id="Dataportaal" stroke="none" stroke-width="1" fill="none" fill-rule="evenodd">
        <g id="loc-icoon">
            <path d="M35.1960784,31.7901235 C50.5734185,31.7901235 63.0392157,26.0416807 63.0392157,18.9506173 C63.0392157,11.8595538 50.5734185,6.11111111 35.1960784,6.11111111 C19.8187383,6.11111111 7.35294118,11.8595538 7.35294118,18.9506173 C7.35294118,26.0416807 19.8187383,31.7901235 35.1960784,31.7901235 Z M35.1960784,35 C15.9744033,35 0.392156863,27.8144466 0.392156863,18.9506173 C0.392156863,10.086788 15.9744033,2.90123457 35.1960784,2.90123457 C54.4177535,2.90123457 70,10.086788 70,18.9506173 C70,27.8144466 54.4177535,35 35.1960784,35 Z" id="Oval" fill="#666666" fill-rule="nonzero"></path>
            <path d="M34.8039216,28.8888889 C50.1812617,28.8888889 62.6470588,23.1404462 62.6470588,16.0493827 C62.6470588,8.95831926 50.1812617,3.20987654 34.8039216,3.20987654 C19.4265815,3.20987654 6.96078431,8.95831926 6.96078431,16.0493827 C6.96078431,23.1404462 19.4265815,28.8888889 34.8039216,28.8888889 Z M34.8039216,32.0987654 C15.5822465,32.0987654 0,24.913212 0,16.0493827 C0,7.1855534 15.5822465,0 34.8039216,0 C54.0255967,0 69.6078431,7.1855534 69.6078431,16.0493827 C69.6078431,24.913212 54.0255967,32.0987654 34.8039216,32.0987654 Z" id="Oval" fill="#FFFFFF" fill-rule="nonzero"></path>
            <path d="M34.8039216,17.654321 C36.7260891,17.654321 38.2843137,16.9357656 38.2843137,16.0493827 C38.2843137,15.1629998 36.7260891,14.4444444 34.8039216,14.4444444 C32.8817541,14.4444444 31.3235294,15.1629998 31.3235294,16.0493827 C31.3235294,16.9357656 32.8817541,17.654321 34.8039216,17.654321 Z M34.8039216,19.2592593 C30.9595865,19.2592593 27.8431373,17.8221486 27.8431373,16.0493827 C27.8431373,14.2766169 30.9595865,12.8395062 34.8039216,12.8395062 C38.6482566,12.8395062 41.7647059,14.2766169 41.7647059,16.0493827 C41.7647059,17.8221486 38.6482566,19.2592593 34.8039216,19.2592593 Z" id="Oval" fill="#FFFFFF" fill-rule="nonzero"></path>
            <ellipse id="Oval" fill="#666666" cx="34.8039216" cy="16.0493827" rx="3.48039216" ry="1.60493827"></ellipse>
            <path d="M34.8039216,24.0740741 C44.4147591,24.0740741 52.2058824,20.4812974 52.2058824,16.0493827 C52.2058824,11.6174681 44.4147591,8.02469136 34.8039216,8.02469136 C25.193084,8.02469136 17.4019608,11.6174681 17.4019608,16.0493827 C17.4019608,20.4812974 25.193084,24.0740741 34.8039216,24.0740741 Z M34.8039216,28.8888889 C19.4265815,28.8888889 6.96078431,23.1404462 6.96078431,16.0493827 C6.96078431,8.95831926 19.4265815,3.20987654 34.8039216,3.20987654 C50.1812617,3.20987654 62.6470588,8.95831926 62.6470588,16.0493827 C62.6470588,23.1404462 50.1812617,28.8888889 34.8039216,28.8888889 Z" id="Oval" fill="#009DE6" fill-rule="nonzero"></path>
        </g>
    </g>
</svg>