<?xml version="1.0" encoding="UTF-8"?>
<svg viewBox="0 0 68 68" version="1.1" xmlns="http://www.w3.org/2000/svg" xmlns:xlink="http://www.w3.org/1999/xlink">
    <path d="M34.1854796,61.8369272 C48.7316121,61.8369272 60.5235824,50.8038801 60.5235824,37.1939267 C60.5235824,23.5839734 48.7316121,12.5509262 34.1854796,12.5509262 C19.6393471,12.5509262 7.84737679,23.5839734 7.84737679,37.1939267 C7.84737679,50.8038801 19.6393471,61.8369272 34.1854796,61.8369272 Z M34.1854796,67.9976773 C16.0028139,67.9976773 1.26285109,54.2063684 1.26285109,37.1939267 C1.26285109,20.181485 16.0028139,6.39017612 34.1854796,6.39017612 C52.3681452,6.39017612 67.1081081,20.181485 67.1081081,37.1939267 C67.1081081,54.2063684 52.3681452,67.9976773 34.1854796,67.9976773 Z" id="Oval" fill="#666666"></path>
    <path d="M33.8145204,56.2708796 C48.3606529,56.2708796 60.1526232,45.2378324 60.1526232,31.6278791 C60.1526232,18.0179257 48.3606529,6.9848786 33.8145204,6.9848786 C19.2683879,6.9848786 7.47641759,18.0179257 7.47641759,31.6278791 C7.47641759,45.2378324 19.2683879,56.2708796 33.8145204,56.2708796 Z M33.8145204,62.4316297 C15.6318548,62.4316297 0.89189189,48.6403208 0.89189189,31.6278791 C0.89189189,14.6154374 15.6318548,0.82412848 33.8145204,0.82412848 C51.9971861,0.82412848 66.7371489,14.6154374 66.7371489,31.6278791 C66.7371489,48.6403208 51.9971861,62.4316297 33.8145204,62.4316297 Z" id="Oval" fill="#FFFFFF"></path>
    <path d="M33.8145204,34.7082541 C35.632787,34.7082541 37.1067833,33.3291233 37.1067833,31.6278791 C37.1067833,29.9266349 35.632787,28.547504 33.8145204,28.547504 C31.9962538,28.547504 30.5222576,29.9266349 30.5222576,31.6278791 C30.5222576,33.3291233 31.9962538,34.7082541 33.8145204,34.7082541 Z M33.8145204,37.7886292 C30.1779873,37.7886292 27.2299947,35.0303674 27.2299947,31.6278791 C27.2299947,28.2253907 30.1779873,25.467129 33.8145204,25.467129 C37.4510535,25.467129 40.3990461,28.2253907 40.3990461,31.6278791 C40.3990461,35.0303674 37.4510535,37.7886292 33.8145204,37.7886292 Z" id="Oval" fill="#FFFFFF"></path>
    <ellipse id="Oval" fill="#666666" cx="33.8145204" cy="31.6278791" rx="3.29226285" ry="3.08037506"></ellipse>
    <path d="M33.8145204,47.0297544 C42.9058532,47.0297544 50.2758347,40.1340999 50.2758347,31.6278791 C50.2758347,23.1216582 42.9058532,16.2260038 33.8145204,16.2260038 C24.7231876,16.2260038 17.3532061,23.1216582 17.3532061,31.6278791 C17.3532061,40.1340999 24.7231876,47.0297544 33.8145204,47.0297544 Z M33.8145204,56.2708796 C19.2683879,56.2708796 7.47641759,45.2378324 7.47641759,31.6278791 C7.47641759,18.0179257 19.2683879,6.9848786 33.8145204,6.9848786 C48.3606529,6.9848786 60.1526232,18.0179257 60.1526232,31.6278791 C60.1526232,45.2378324 48.3606529,56.2708796 33.8145204,56.2708796 Z" id="Oval" fill="#B1D9F5"></path>
</svg>
