<?xml version="1.0" encoding="UTF-8"?>
<svg width="15px" height="17px" viewBox="0 0 15 17" version="1.1" xmlns="http://www.w3.org/2000/svg" xmlns:xlink="http://www.w3.org/1999/xlink">
    <!-- Generator: Sketch 44.1 (41455) - http://www.bohemiancoding.com/sketch -->
    <title>laad icoon</title>
    <desc>Created with Sketch.</desc>
    <defs>
        <polygon id="path-1" points="8.68687226 8.48500061 8.78686311 16.7600021 16.8900146 16.7600021 16.8900146 0.209999084 0.483729879 0.209999084"></polygon>
    </defs>
    <g id="Dataportaal" stroke="none" stroke-width="1" fill="none" fill-rule="evenodd">
        <g id="Panorama---kaart---laden" transform="translate(-359.000000, -67.000000)">
            <g id="loading" transform="translate(349.000000, 60.000000)">
                <g id="laad-icoon" transform="translate(8.000000, 7.000000)">
                    <mask id="mask-2" fill="white">
                        <use xlink:href="#path-1"></use>
                    </mask>
                    <g id="Rectangle-4"></g>
                    <path d="M8.63636364,16.6766665 C4.1051183,16.6766665 0.431818182,13.0031629 0.431818182,8.47166659 C0.431818182,3.94017026 4.1051183,0.266666667 8.63636364,0.266666667 C13.167609,0.266666667 16.8409091,3.94017026 16.8409091,8.47166659 C16.8409091,13.0031629 13.167609,16.6766665 8.63636364,16.6766665 Z M8.63636364,14.9492981 C12.2136626,14.9492981 15.1136364,12.0491637 15.1136364,8.47166659 C15.1136364,4.89416949 12.2136626,1.99403507 8.63636364,1.99403507 C5.05906469,1.99403507 2.15909091,4.89416949 2.15909091,8.47166659 C2.15909091,12.0491637 5.05906469,14.9492981 8.63636364,14.9492981 Z" id="Oval-Copy-2" fill="#000000" fill-rule="nonzero" mask="url(#mask-2)"></path>
                </g>
            </g>
        </g>
    </g>
</svg>