<?xml version="1.0" encoding="UTF-8"?>
<svg viewBox="0 0 21 21" version="1.1" xmlns="http://www.w3.org/2000/svg" xmlns:xlink="http://www.w3.org/1999/xlink">
    <path d="M11,19 C15.418278,19 19,15.418278 19,11 C19,6.581722 15.418278,3 11,3 C6.581722,3 3,6.581722 3,11 C3,15.418278 6.581722,19 11,19 Z M11,21 C5.4771525,21 1,16.5228475 1,11 C1,5.4771525 5.4771525,1 11,1 C16.5228475,1 21,5.4771525 21,11 C21,16.5228475 16.5228475,21 11,21 Z" id="Oval" fill="#666666" fill-rule="nonzero"></path>
    <path d="M10,18 C14.418278,18 18,14.418278 18,10 C18,5.581722 14.418278,2 10,2 C5.581722,2 2,5.581722 2,10 C2,14.418278 5.581722,18 10,18 Z M10,20 C4.4771525,20 0,15.5228475 0,10 C0,4.4771525 4.4771525,0 10,0 C15.5228475,0 20,4.4771525 20,10 C20,15.5228475 15.5228475,20 10,20 Z" id="Oval" fill="#FFFFFF" fill-rule="nonzero"></path>
    <circle id="Oval" fill="#EC0000" cx="10" cy="10" r="8"></circle>
</svg>
