<?xml version="1.0" encoding="UTF-8"?>
<svg viewBox="0 0 24 24" version="1.1" xmlns="http://www.w3.org/2000/svg" xmlns:xlink="http://www.w3.org/1999/xlink">
    <path d="M12.5,22 C17.7467051,22 22,17.7467051 22,12.5 C22,7.25329488 17.7467051,3 12.5,3 C7.25329488,3 3,7.25329488 3,12.5 C3,17.7467051 7.25329488,22 12.5,22 Z M12.5,24 C6.14872538,24 1,18.8512746 1,12.5 C1,6.14872538 6.14872538,1 12.5,1 C18.8512746,1 24,6.14872538 24,12.5 C24,18.8512746 18.8512746,24 12.5,24 Z" id="Oval" fill="#666666" fill-rule="nonzero"></path>
    <path d="M11.5,21 C16.7467051,21 21,16.7467051 21,11.5 C21,6.25329488 16.7467051,2 11.5,2 C6.25329488,2 2,6.25329488 2,11.5 C2,16.7467051 6.25329488,21 11.5,21 Z M11.5,23 C5.14872538,23 0,17.8512746 0,11.5 C0,5.14872538 5.14872538,0 11.5,0 C17.8512746,0 23,5.14872538 23,11.5 C23,17.8512746 17.8512746,23 11.5,23 Z" id="Oval" fill="#FFFFFF" fill-rule="nonzero"></path>
    <circle id="Oval" fill="#EC0000" cx="11.5" cy="11.5" r="9.5"></circle>
</svg>
