<?xml version="1.0" encoding="UTF-8"?>
<svg viewBox="0 0 26 26" version="1.1" xmlns="http://www.w3.org/2000/svg" xmlns:xlink="http://www.w3.org/1999/xlink">
    <path d="M15.5693379,3.43446897 C16.4726138,3.43446897 17.2055448,4.16695172 17.2055448,5.07067586 C17.2055448,5.9744 16.4726138,6.70643448 15.5693379,6.70643448 C15.0497862,6.70643448 14.5867172,6.46391724 14.2868207,6.08646897 C14.1814759,6.5186069 13.4727517,6.90143448 12.6802,6.38950345 C13.6430966,6.16133103 13.2253034,4.93215862 13.2253034,4.4534 C13.2253034,4.43681379 13.2257517,4.41977931 13.2275448,4.40184828 C13.2262,4.3771931 13.2253034,4.35253793 13.2253034,4.32743448 C13.2253034,3.59988276 13.8147862,3.0104 14.5418897,3.0104 C14.9256138,3.0104 15.2703379,3.17446897 15.5110621,3.43626207 C15.5303379,3.43536552 15.5496138,3.43446897 15.5693379,3.43446897 Z M18.6148793,10.923231 C18.6225,10.9747828 18.6211552,11.0308172 18.6153276,11.082369 C18.6162241,11.0774379 18.6166724,11.0734034 18.6153276,11.0837138 C18.614431,11.0913345 18.6148793,11.0881966 18.6148793,11.0846103 C18.6086034,11.1410931 18.5960517,11.2002655 18.5731897,11.2527138 L17.9801207,12.6585069 L17.083569,8.48326552 C17.0230517,8.49626552 16.9706034,8.53347241 16.9369828,8.58592069 C16.9038103,8.63792069 16.8926034,8.70157586 16.9060517,8.7620931 L18.3347069,15.4257138 L17.2812586,15.4257138 L17.1162931,17.7320931 C17.1158448,17.7361276 17.1153966,17.7406103 17.1153966,17.7446448 L16.8276034,21.7634379 L17.2346379,21.911369 C17.6703621,22.0691621 17.9621897,22.4788862 17.9716034,22.9406103 L13.1669828,22.9406103 C13.1759483,22.4788862 13.4677759,22.0691621 13.9035,21.911369 L14.3109828,21.7634379 L14.0227414,17.7446448 C14.0227414,17.7433 14.0218448,17.7320931 14.0218448,17.7320931 L13.8568793,15.4257138 L12.8038793,15.4257138 L13.3158103,13.0328172 L12.5649483,11.2527138 C12.5228103,11.1523 12.507569,11.0308172 12.5237069,10.923231 L13.0051552,7.70505862 C13.0127759,7.65619655 13.0248793,7.60374828 13.0441552,7.55757586 L13.0441552,7.55712759 C13.1463621,7.28861034 13.4121897,7.10661034 13.6990862,7.10661034 L13.6990862,7.10616207 L17.4273966,7.10616207 C17.4291897,7.10571379 17.4309828,7.10616207 17.4327759,7.10616207 L17.4386034,7.10616207 C17.7819828,7.10616207 18.0818793,7.36571379 18.1325345,7.7055069 L18.6148793,10.923231 Z M25.3286172,10.7987448 C25.3366862,10.8507448 25.3348931,10.9076759 25.3290655,10.9601241 C25.3223414,11.0175034 25.3093414,11.0780207 25.2869276,11.1318138 L24.0779276,13.9958483 L23.8143414,17.6784345 C23.8143414,17.6784345 23.8138931,17.6896414 23.8134448,17.6909862 L23.5229621,21.7510207 L23.934031,21.9002966 C24.3742379,22.060331 24.6692034,22.4745379 24.6786172,22.9407448 L19.8242379,22.9407448 C19.8336517,22.4745379 20.128169,22.060331 20.5688241,21.9002966 L20.9798931,21.7510207 L20.6894103,17.6909862 C20.6889621,17.6896414 20.6885138,17.6784345 20.6885138,17.6784345 L20.4267207,14.0276759 L20.2702724,11.452331 L20.9005483,8.6151931 C20.9139966,8.55422759 20.9027897,8.49012414 20.869169,8.43722759 C20.8355483,8.38433103 20.7826517,8.34712414 20.7212379,8.33367586 L20.0326862,11.4330552 L20.1483414,13.3413655 L19.2163759,11.1318138 C19.1733414,11.0318483 19.1581,10.9067793 19.1742379,10.7987448 L19.6610655,7.54784828 C19.7179966,7.20536552 20.0116172,6.94267586 20.362169,6.94267586 L20.362169,6.94222759 L20.3679966,6.94222759 L20.3738241,6.94222759 L24.1406862,6.94222759 L24.1406862,6.94267586 C24.2814448,6.94267586 24.4213069,6.98526207 24.5378586,7.0646069 C24.6445483,7.17084828 24.7463069,7.25064138 24.8023414,7.39812414 L24.8023414,7.39857241 C24.8220655,7.44474483 24.834169,7.49808966 24.8417897,7.5474 L25.3286172,10.7987448 Z M20.5977379,4.89392069 C20.5977379,3.98078276 21.3382897,3.24023103 22.2514276,3.24023103 C23.1650138,3.24023103 23.9051172,3.98078276 23.9051172,4.89392069 C23.9051172,5.80705862 23.1650138,6.54761034 22.2514276,6.54761034 C21.3382897,6.54761034 20.5977379,5.80705862 20.5977379,4.89392069 Z M10.5636655,8.31422069 C10.5027,8.32811724 10.4493552,8.36532414 10.4152862,8.41822069 C10.3816655,8.47111724 10.3704586,8.53522069 10.3839069,8.59618621 L11.0155276,11.4369103 L10.8572862,14.0274966 L10.5968379,17.6710828 C10.5963897,17.6755655 10.5959414,17.6796 10.5959414,17.6840828 L10.3045621,21.7499448 L10.7165276,21.8992207 C11.1571828,22.0592552 11.4525966,22.4734621 11.4620103,22.9410138 L6.60135517,22.9410138 C6.61032069,22.4734621 6.90573448,22.0592552 7.34638966,21.8992207 L7.7579069,21.7499448 L7.46742414,17.6840828 C7.46742414,17.6827379 7.46607931,17.6710828 7.46607931,17.6710828 L7.14332069,13.1596345 L7.14287241,13.1547034 C7.14242414,13.1417034 7.14152759,13.1287034 7.13973448,13.1157034 L7.13973448,8.33932414 C7.12673448,8.33932414 7.11418276,8.33977241 7.10118276,8.33887586 L6.19745862,8.2918069 L5.29283793,8.33887586 C5.27938966,8.33977241 5.26683793,8.33932414 5.25383793,8.33932414 L5.25383793,13.1157034 C5.25204483,13.1287034 5.25114828,13.1417034 5.25114828,13.1547034 L5.2507,13.1596345 L4.9274931,17.6710828 C4.9274931,17.6710828 4.92704483,17.6827379 4.92659655,17.6840828 L4.63566552,21.7499448 L5.04763103,21.8992207 C5.48828621,22.0592552 5.78325172,22.4734621 5.79311379,22.9410138 L0.932458621,22.9410138 C0.941424138,22.4734621 1.23683793,22.0592552 1.67794138,21.8992207 L2.08901034,21.7499448 L1.79807931,17.6840828 C1.79763103,17.6796 1.79763103,17.6755655 1.79718276,17.6710828 L1.53583793,14.018531 L1.3784931,11.4369103 L2.00966552,8.59618621 C2.02356207,8.53477241 2.0119069,8.47111724 1.97828621,8.41822069 C1.94466552,8.36532414 1.89176897,8.32766897 1.83035517,8.31422069 L1.14045862,11.4180828 L1.25701034,13.3290828 L0.323251724,11.1163931 C0.281113793,11.0137379 0.26632069,10.8936 0.281562069,10.7828759 L0.768837931,7.52749655 C0.825768966,7.18635862 1.11983793,6.92142759 1.47083793,6.92142759 L1.47083793,6.92097931 L1.47711379,6.92097931 L1.4824931,6.92097931 L5.25383793,6.92097931 L5.25742414,6.92097931 L6.15397586,6.92277241 L7.13659655,6.92097931 L7.14735517,6.92097931 L10.9110793,6.92097931 L10.9169069,6.92097931 L10.9231828,6.92097931 L10.9231828,6.92142759 C11.2737345,6.92142759 11.5682517,7.18635862 11.6247345,7.52749655 L12.1124586,10.7828759 C12.119631,10.8353241 12.1191828,10.8909103 12.1129069,10.9433586 C12.1070793,11.0016345 12.0931828,11.0617034 12.070769,11.1163931 L11.1370103,13.3286345 L11.2535621,11.4180828 L10.5636655,8.31422069 Z M1.7069,4.8702069 C1.7069,3.95572414 2.4479,3.21427586 3.36238276,3.21427586 C4.27731379,3.21427586 5.01876207,3.95572414 5.01876207,4.8702069 C5.01876207,5.78468966 4.27731379,6.52613793 3.36238276,6.52613793 C2.4479,6.52613793 1.7069,5.78468966 1.7069,4.8702069 Z M10.6873897,4.8702069 C10.6873897,5.78468966 9.9454931,6.52613793 9.03145862,6.52613793 C8.11697586,6.52613793 7.37552759,5.78468966 7.37552759,4.8702069 C7.37552759,3.95572414 8.11697586,3.21427586 9.03145862,3.21427586 C9.9454931,3.21427586 10.6873897,3.95572414 10.6873897,4.8702069 Z" fill="#000000"></path>
</svg>