<?xml version="1.0" encoding="UTF-8"?>
<svg viewBox="0 0 26 26" version="1.1" xmlns="http://www.w3.org/2000/svg" xmlns:xlink="http://www.w3.org/1999/xlink">
    <path d="M10.6708333,7.32916667 C8.99166667,8.14166667 7.8,9.875 7.8,11.825 C7.8,11.9875 7.85416667,12.15 7.85416667,12.3125 C7.69166667,12.3666667 7.475,12.3666667 7.25833333,12.3666667 C5.25416667,12.3666667 3.575,10.7416667 3.575,8.68333333 C3.575,6.67916667 5.2,5 7.25833333,5 C8.775,5 10.1291667,5.975 10.6708333,7.32916667 Z M12.8375,15.2916667 C10.9528283,15.2916667 9.425,13.7638384 9.425,11.8791667 C9.425,9.99449496 10.9528283,8.46666667 12.8375,8.46666667 C14.7221717,8.46666667 16.25,9.99449496 16.25,11.8791667 C16.25,13.7638384 14.7221717,15.2916667 12.8375,15.2916667 Z M22.2625,8.7375 C22.2625,10.7416667 20.5833333,12.4208333 18.5791667,12.475 C18.3625,12.475 18.1458333,12.475 17.9291667,12.4208333 C17.9833333,12.2583333 17.9833333,12.0958333 17.9833333,11.9333333 C17.9833333,9.92916667 16.8458333,8.19583333 15.1666667,7.38333333 C15.7083333,6.02916667 17.0083333,5.05416667 18.5791667,5.05416667 C20.5833333,5.05416667 22.2625,6.67916667 22.2625,8.7375 Z M19.3916667,18.7041667 C19.6625,19.1916667 19.7708333,19.7875 19.7708333,20.4375 L19.7708333,21.25 L5.79583333,21.25 L5.79583333,20.3833333 C5.79583333,19.7875 5.90416667,19.1916667 6.175,18.7041667 C6.87916667,17.35 8.45,16.5916667 10.4541667,16.5916667 L15.1125,16.5916667 C17.1166667,16.5916667 18.6875,17.35 19.3916667,18.7041667 Z M8.99166667,15.075 C6.71666667,15.5083333 5.09166667,16.8083333 4.44166667,18.7041667 L0.270833333,18.7041667 L0.270833333,17.9458333 C0.270833333,15.3458333 2.22083333,14.0458333 4.92916667,14.0458333 L8.34166667,14.0458333 C8.50416667,14.425 8.72083333,14.75 8.99166667,15.075 Z M25.7299995,17.9458333 L25.7299995,18.7041667 L21.125,18.7041667 C20.5291667,16.8083333 18.9041667,15.5083333 16.6833333,15.075 C16.9541667,14.75 17.225,14.425 17.3875,14.0458333 L21.0708333,14.0458333 C23.7791667,14.0458333 25.7299995,15.3458333 25.7299995,17.9458333 Z" fill="#000000"></path>
</svg>