<?xml version="1.0" encoding="UTF-8"?>
<svg viewBox="0 0 26 26" version="1.1" xmlns="http://www.w3.org/2000/svg" xmlns:xlink="http://www.w3.org/1999/xlink">
    <defs>
        <polygon id="path-1" points="0.434832757 0.0601518647 0.434832757 4.38204433 4.75754517 4.38204433 4.75754517 0.0601518647 0.434832757 0.0601518647"></polygon>
        <rect id="path-3" x="0" y="0" width="4.4982699" height="3.31897286"></rect>
        <polygon id="path-5" points="0.416714725 0.057645537 0.416714725 4.19945915 4.55931413 4.19945915 4.55931413 0.057645537 0.416714725 0.057645537"></polygon>
        <rect id="path-7" x="0" y="0" width="4.4982699" height="3.76355187"></rect>
    </defs>
    <g id="thema-dienstverlening" stroke="none" stroke-width="1" fill="none" fill-rule="evenodd">
        <g transform="translate(1.000000, 0.000000)">
            <g id="rechts" transform="translate(10.495963, 1.499423)">
                <g id="lijf" transform="translate(2.998847, 4.636217)" fill="#000000">
                    <path d="M6.19446751,0.599769319 C6.06701653,0.265397924 5.74913879,0.0609765475 5.41176855,0.0609765475 L5.41176855,0.059976932 L0.957481738,0.059976932 L0.950984237,0.059976932 L0.943986928,0.059976932 L0.943986928,0.0604767397 C0.591122645,0.059976932 0.26324875,0.284390619 0.147293349,0.63775471 C0.0038485198,1.07808535 0.244256055,1.55040369 0.68408689,1.69434833 C0.770553633,1.72233756 0.858019992,1.73533256 0.943986928,1.73533256 L0.943986928,7.37466359 C0.943986928,7.9609381 1.41930411,8.43625529 2.00557862,8.43625529 L4.35017686,8.43625529 C4.93645136,8.43625529 5.41176855,7.9609381 5.41176855,7.37466359 L5.41176855,1.73483276 C5.51073049,1.73483276 5.61119185,1.71783929 5.70965398,1.68085352 C6.1419877,1.51591696 6.35890427,1.03210304 6.19446751,0.599769319" id="Fill-51"></path>
                    <path d="M0.307581699,18.9772511 L3.17747789,18.9772511 L3.17747789,18.0671011 C3.17747789,17.6622568 2.84910419,17.3343829 2.44475971,17.3343829 C2.33380238,17.3343829 2.22934256,17.3593733 2.1353787,17.4033564 L2.13487889,17.4033564 L1.18774318,17.7472241 C0.667443291,17.9361515 0.31857747,18.4259631 0.307581699,18.9772511" id="Fill-53"></path>
                    <path d="M1.33043829,12.7693887 L1.32943868,12.7543945 C1.32793925,12.7314033 1.32693964,12.708912 1.32693964,12.6859208 C1.32693964,12.0976471 1.80375625,11.6208304 2.39202999,11.6208304 C2.98030373,11.6208304 3.45712034,12.0976471 3.45712034,12.6859208 C3.45712034,12.7014148 3.45662053,12.7164091 3.45612072,12.7319031 L3.45612072,12.7364014 L3.45562092,12.7458977 L3.17672818,18.0998385 C3.15973472,18.4891888 2.83835832,18.8000692 2.4445098,18.8000692 C2.05965782,18.8000692 1.74377932,18.5031834 1.71379085,18.1258285 L1.71379085,18.1243291 L1.71379085,18.1218301 L1.33043829,12.7693887 Z" id="Fill-55"></path>
                    <path d="M0.947435602,7.420396 C0.944936563,7.38690888 0.943936947,7.35342176 0.943936947,7.31943483 C0.943936947,6.54823145 1.56869666,5.92347174 2.33990004,5.92347174 C3.11160323,5.92347174 3.73586313,6.54823145 3.73586313,7.31943483 C3.73586313,7.34792388 3.73536332,7.37591311 3.7338639,7.40390235 L3.45647059,12.7318531 C3.43198001,13.2986351 2.96515955,13.7509612 2.39237985,13.7509612 C1.82709727,13.7509612 1.36477509,13.3106305 1.32928874,12.7543445 L0.947935409,7.4268935 L0.947435602,7.420396 Z" id="Fill-57"></path>
                    <path d="M5.16736255,17.7470742 L4.22022684,17.4032065 L4.21972703,17.4032065 C4.12576317,17.3592234 4.02130334,17.3337332 3.91084583,17.3337332 C3.50600154,17.3337332 3.17762784,17.6621069 3.17762784,18.0669512 L3.17762784,18.9771011 L6.04752403,18.9771011 C6.03652826,18.4258131 5.68766244,17.9360015 5.16736255,17.7470742" id="Fill-59"></path>
                    <path d="M5.0247674,12.7693887 L5.02576701,12.7543945 C5.02726644,12.7314033 5.02826605,12.708912 5.02826605,12.6859208 C5.02826605,12.0976471 4.55144944,11.6208304 3.96267589,11.6208304 C3.37440215,11.6208304 2.89808535,12.0976471 2.89808535,12.6859208 C2.89808535,12.7014148 2.89808535,12.7164091 2.89908497,12.7319031 L2.89908497,12.7364014 L2.89958478,12.7458977 L3.17847751,18.0998385 C3.19547097,18.4891888 3.51734717,18.8000692 3.91069589,18.8000692 C4.29554787,18.8000692 4.61142637,18.5031834 4.64141484,18.1258285 L4.64141484,18.1243291 L4.64141484,18.1218301 L5.0247674,12.7693887 Z" id="Fill-61"></path>
                    <path d="M5.40777009,7.420396 C5.41026913,7.38690888 5.41126874,7.35342176 5.41126874,7.31943483 C5.41126874,6.54823145 4.78650903,5.92347174 4.01530565,5.92347174 C3.24360246,5.92347174 2.61884275,6.54823145 2.61884275,7.31943483 C2.61884275,7.34792388 2.61984237,7.37591311 2.62134179,7.40390235 L2.8987351,12.7318531 C2.92322568,13.2986351 3.39004614,13.7509612 3.96282584,13.7509612 C4.52810842,13.7509612 4.9904306,13.3106305 5.02591696,12.7543445 L5.40727028,7.4268935 L5.40777009,7.420396 Z" id="Fill-63"></path>
                    <path d="M5.41121876,7.31953479 L5.41121876,7.31953479 C5.41121876,6.08600923 4.41110342,5.08589389 3.17757785,5.08589389 C1.94405229,5.08589389 0.943936947,6.08600923 0.943936947,7.31953479 L5.41121876,7.31953479 Z" id="Fill-65"></path>
                </g>
                <g id="arm" transform="translate(0.000000, 4.636217)">
                    <path d="M4.51651288,8.2258862 C3.86726259,8.2258862 3.33596694,7.70858516 3.31897347,7.05883506 L3.30647828,6.46306421 L3.30647828,6.44557093 C3.30647828,6.09870434 3.58737024,5.81731257 3.93473664,5.81731257 C4.28160323,5.81731257 4.562995,6.09870434 4.562995,6.44557093 L4.56249519,6.4625644 L4.51651288,8.2258862 Z" id="Fill-68" fill="#000000"></path>
                    <path d="M4.37776624,6.85816225 C4.13585928,7.1000692 3.74550942,7.10356786 3.499604,6.8681584 L0.663194925,4.18019223 C0.658696655,4.17569396 0.654198385,4.17119569 0.649700115,4.16719723 C0.363310265,3.88030757 0.363310265,3.41648597 0.649700115,3.13009612 C0.936089965,2.84370627 1.39991157,2.84370627 1.68630142,3.13009612 C1.69079969,3.13459439 1.69529796,3.13909266 1.69979623,3.14359093 L4.3877624,5.98 C4.62317186,6.22590542 4.6196732,6.61625529 4.37776624,6.85816225" id="Fill-70" fill="#000000"></path>
                    <g id="Group-74">
                        <mask id="mask-2" fill="white">
                            <use xlink:href="#path-1"></use>
                        </mask>
                        <g id="Clip-73"></g>
                        <path d="M0.649500192,4.16719723 C0.367608612,3.88530565 0.363110342,3.4314802 0.636005383,3.14409073 L3.30997693,0.323175702 C3.31547482,0.317178008 3.32147251,0.311180315 3.3269704,0.30568243 C3.65434448,-0.0216916571 4.18464052,-0.0216916571 4.51201461,0.30568243 C4.8393887,0.633056517 4.8393887,1.16285275 4.51201461,1.49022684 C4.50601692,1.49622453 4.50001922,1.50172241 4.49402153,1.5072203 L1.67260669,4.18069204 C1.38521722,4.45358708 0.931391772,4.44908881 0.649500192,4.16719723" id="Fill-72" fill="#000000" mask="url(#mask-2)"></path>
                    </g>
                </g>
                <path d="M7.83493656,12.862103 C8.48418685,12.862103 9.01548251,12.344802 9.03247597,11.6950519 L9.04497116,11.0997809 L9.04547097,11.0822876 C9.04547097,10.7349212 8.7640792,10.4535294 8.4167128,10.4535294 C8.06984621,10.4535294 7.78845444,10.7349212 7.78845444,11.0822876 L7.78895425,11.0987812 L7.83493656,12.862103 Z" id="Fill-76" fill="#000000"></path>
                <path d="M7.97833141,11.5236178 C8.22023837,11.7655248 8.61058824,11.7690235 8.85649366,11.533614 L11.6929027,8.84564783 C11.697401,8.84164937 11.7018993,8.8371511 11.7063975,8.83215302 C11.9927874,8.54576317 11.9927874,8.08194156 11.7063975,7.79555171 C11.4200077,7.50916186 10.9561861,7.50916186 10.6697962,7.79555171 C10.6647982,7.80004998 10.6607997,7.80454825 10.6563014,7.80904652 L7.96833526,10.6454556 C7.7329258,10.891361 7.73642445,11.2817109 7.97833141,11.5236178" id="Fill-78" fill="#000000"></path>
                <path d="M11.7065475,8.80341407 C11.9884391,8.52152249 11.9929373,8.06769704 11.7200423,7.78030757 L9.04607074,4.95939254 C9.04057286,4.95339485 9.03457516,4.94739715 9.02907728,4.94189927 C8.70170319,4.61452518 8.17140715,4.61452518 7.84403306,4.94189927 C7.51665898,5.26927336 7.51715879,5.79906959 7.84403306,6.12644368 C7.85003076,6.13244137 7.85602845,6.13793925 7.86202614,6.14343714 L10.683441,8.81690888 C10.9708304,9.08980392 11.4246559,9.08530565 11.7065475,8.80341407" id="Fill-80" fill="#000000"></path>
                <path d="M6.17657439,0.318777393 C5.09648981,0.318777393 4.22082661,1.1944406 4.22082661,2.27402537 C4.22082661,3.35410996 5.09648981,4.22977316 6.17657439,4.22977316 C7.25665898,4.22977316 8.13232218,3.35410996 8.13232218,2.27402537 C8.13232218,1.1944406 7.25665898,0.318777393 6.17657439,0.318777393" id="Fill-82" fill="#000000"></path>
            </g>
            <g id="balie" transform="translate(0.499808, 10.995771)" fill="#000000">
                <polygon id="Rectangle" points="0 0 10.9957709 0 12.4951942 1.4994233 0 1.4994233"></polygon>
                <polygon id="Rectangle" points="21.3917663 0 22.4913495 0 22.4913495 1.4994233 19.7923753 1.4994233"></polygon>
            </g>
            <g id="links">
                <path d="M8.06017285,4.501477 L3.79148132,4.50051903 C3.44038719,4.50051903 3.12617471,4.71558215 3.01505078,5.05422273 C2.87758282,5.47620627 3.10797338,5.92884468 3.52947793,6.06679162 C3.61234189,6.09361464 3.69616382,6.10606818 3.7785488,6.10606818 L3.7785488,10.7608606 L8.06017285,10.7608606 L8.06017285,6.1055892 C8.15501137,6.1055892 8.25128684,6.08930379 8.34564639,6.05385909 C8.7599662,5.89579489 8.96784458,5.43213988 8.81025936,5.01782007 C8.68811883,4.69738082 8.383486,4.501477 8.06017285,4.501477 Z" id="Fill-51" fill="#000000"></path>
                <g id="arm" transform="translate(0.000000, 4.443041)">
                    <g id="Group-2" transform="translate(0.000000, 2.998847)">
                        <mask id="mask-4" fill="white">
                            <use xlink:href="#path-3"></use>
                        </mask>
                        <g id="Rectangle-2"></g>
                        <path d="M3.35378717,3.58313854 L0.635561803,1.00717096 C0.631250961,1.00286012 0.626940119,0.998549276 0.622629277,0.994717416 C0.348172338,0.719781494 0.348172338,0.275285788 0.622629277,0.000828847878 C0.897086217,-0.273628092 1.34158192,-0.273628092 1.61603886,0.000828847878 C1.62034971,0.00513968986 1.62466055,0.00945053185 1.62897139,0.0137613738 L4.20493897,2.73198674 C4.4305397,2.9676461 4.42718682,3.34173139 4.19535932,3.57355889 L3.35378717,3.58313854 Z" id="Fill-70" fill="#000000" mask="url(#mask-4)"></path>
                    </g>
                    <g id="Group-74">
                        <mask id="mask-6" fill="white">
                            <use xlink:href="#path-5"></use>
                        </mask>
                        <g id="Clip-73"></g>
                        <path d="M0.622437684,3.99356401 C0.352291587,3.72341792 0.347980745,3.28850186 0.609505158,3.01308695 L3.17206123,0.309710047 C3.17733003,0.303962258 3.18307782,0.298214469 3.18834663,0.292945662 C3.50208013,-0.020787838 4.0102805,-0.020787838 4.324014,0.292945662 C4.6377475,0.606679162 4.6377475,1.11440055 4.324014,1.42813405 C4.31826621,1.43388184 4.31251842,1.43915065 4.30677063,1.44441945 L1.60291474,4.00649654 C1.32749984,4.26802095 0.892583782,4.26371011 0.622437684,3.99356401" id="Fill-72" fill="#000000" mask="url(#mask-6)"></path>
                    </g>
                </g>
                <g id="arm" transform="translate(7.996924, 6.997309)">
                    <mask id="mask-8" fill="white">
                        <use xlink:href="#path-7"></use>
                    </mask>
                    <g id="Rectangle-2"></g>
                    <path d="M-0.351023324,4.04615837 C-0.119195822,4.27798587 0.254889466,4.28133875 0.490548827,4.05573802 L3.20877419,1.47977044 C3.21308503,1.47593858 3.21739587,1.47162774 3.22170672,1.46683791 C3.49616366,1.19238098 3.49616366,0.747885268 3.22170672,0.473428329 C2.94724978,0.198971389 2.50275407,0.198971389 2.22829713,0.473428329 C2.2235073,0.477739171 2.21967545,0.482050013 2.2153646,0.486360855 L-0.360602973,3.20458622 C-0.586203704,3.44024558 -0.582850827,3.81433087 -0.351023324,4.04615837" id="Fill-78" fill="#000000" mask="url(#mask-8)"></path>
                </g>
                <path d="M11.2187747,8.43660515 C11.4889208,8.16645905 11.4932316,7.731543 11.2317072,7.45612809 L8.66915113,4.75275119 C8.66388232,4.7470034 8.65813453,4.74125561 8.65286572,4.7359868 C8.33913222,4.4222533 7.83093185,4.4222533 7.51719835,4.7359868 C7.20346485,5.0497203 7.20394384,5.55744169 7.51719835,5.87117519 C7.52294614,5.87692298 7.52869393,5.88219179 7.53444172,5.88746059 L10.2382976,8.44953768 C10.5137125,8.71106209 10.9486286,8.70675125 11.2187747,8.43660515" id="Fill-80" fill="#000000"></path>
                <path d="M5.91921713,0.305495002 C4.88413607,0.305495002 4.04495883,1.14467224 4.04495883,2.17927432 C4.04495883,3.21435538 4.88413607,4.05353262 5.91921713,4.05353262 C6.95429819,4.05353262 7.79347543,3.21435538 7.79347543,2.17927432 C7.79347543,1.14467224 6.95429819,0.305495002 5.91921713,0.305495002" id="Fill-82" fill="#000000"></path>
                <path d="M5.92272203,4.74817378 L5.92272203,9.74625144" id="Line" stroke="#FFFFFF" stroke-linecap="square"></path>
            </g>
        </g>
    </g>
</svg>