<?xml version="1.0" encoding="UTF-8"?>
<svg viewBox="0 0 26 26" version="1.1" xmlns="http://www.w3.org/2000/svg" xmlns:xlink="http://www.w3.org/1999/xlink">
    <path d="M24.1041679,12.8541671 L25.729168,12.8541671 L25.729168,12.8541671 C25.1875013,11.7708337 24.1583346,10.6875003 21.9375011,10.6875003 L19.4458343,10.6875003 C18.5791676,9.49583357 15.4916675,5.27083335 15.4916675,5.27083335 L4.98333359,5.27083335 L0.270833347,9.65833358 L0.270833347,17.6750007 L1.9500001,17.6750007 C2.22083345,15.8333339 3.79166686,14.4250005 5.6875003,14.4250005 C7.58333373,14.4250005 9.15416714,15.8333339 9.42500049,17.6750007 L15.4916675,17.6750007 C15.8166675,15.8875006 17.3333342,14.4250005 19.2291677,14.4250005 C21.0708344,14.4250005 22.6958345,15.8875006 22.9666679,17.6750007 L25.729168,17.6750007 L25.729168,14.9666672 L24.1041679,14.9666672 L24.1041679,12.8541671 L24.1041679,12.8541671 Z M7.85416708,10.6875003 L2.43750013,10.6875003 L5.8500003,7.43750013 L7.85416708,7.43750013 L7.85416708,10.6875003 Z M10.0208339,10.6875003 L10.0208339,7.43750013 L14.3000007,7.43750013 C14.7333341,8.08750016 16.3041675,10.1458336 16.6833342,10.6875003 L10.0208339,10.6875003 Z M8.3416671,17.7291673 C8.39583377,17.8916673 8.39583377,18.0541673 8.39583377,18.270834 C8.39583377,19.7875008 7.20416704,20.9791675 5.6875003,20.9791675 C4.17083355,20.9791675 2.97916682,19.7875008 2.97916682,18.270834 C2.97916682,18.108334 2.97916682,17.8916673 3.03333349,17.7291673 C3.30416684,16.4833339 4.38750023,15.5625005 5.6875003,15.5625005 C6.98750036,15.5625005 8.07083375,16.4833339 8.3416671,17.7291673 Z M21.9375011,17.7291673 C21.9375011,17.8916673 21.9916678,18.0541673 21.9916678,18.270834 C21.9916678,19.7875008 20.8000011,20.9791675 19.2833343,20.9791675 C17.7666676,20.9791675 16.5750009,19.7875008 16.5750009,18.270834 C16.5750009,18.108334 16.5750009,17.8916673 16.6291675,17.7291673 C16.9000009,16.4833339 17.9833343,15.5625005 19.2833343,15.5625005 C20.5833344,15.5625005 21.6666678,16.4833339 21.9375011,17.7291673 Z" fill="#010202"></path>
</svg>